{
  "accessors": [
    {
      "bufferView": 2,
      "componentType": 5126,
      "count": 11037,
      "max": [
        1.7920303344726563,
        1.5657354593276978,
        1.4359164237976074
      ],
      "min": [
        -1.7920303344726563,
        -1.5657354593276978,
        -1.4359163045883179
      ],
      "type": "VEC3"
    },
    {
      "bufferView": 2,
      "byteOffset": 132444,
      "componentType": 5126,
      "count": 11037,
      "max": [
        1.0,
        1.0,
        1.0
      ],
      "min": [
        -1.0,
        -1.0,
        -1.0
      ],
      "type": "VEC3"
    },
    {
      "bufferView": 1,
      "componentType": 5126,
      "count": 11037,
      "max": [
        0.875,
        0.9407647848129272
      ],
      "min": [
        0.0,
        0.0
      ],
      "type": "VEC2"
    },
    {
      "bufferView": 1,
      "byteOffset": 88296,
      "componentType": 5126,
      "count": 11037,
      "max": [
        1.000000238418579,
        0.9664450883865356
      ],
      "min": [
        0.0,
        0.0
      ],
      "type": "VEC2"
    },
    {
      "bufferView": 0,
      "componentType": 5125,
      "count": 58341,
      "type": "SCALAR"
    },
    {
      "bufferView": 2,
      "byteOffset": 264888,
      "componentType": 5126,
      "count": 70,
      "max": [
        1.5716952085494995,
        -1.4830820560455322,
        -0.5722954273223877
      ],
      "min": [
        1.458440899848938,
        -1.5657353401184082,
        -0.8136641979217529
      ],
      "type": "VEC3"
    },
    {
      "bufferView": 2,
      "byteOffset": 265728,
      "componentType": 5126,
      "count": 70,
      "max": [
        1.0,
        1.6950602912402246e-06,
        1.0
      ],
      "min": [
        -1.0,
        -0.9672960638999939,
        -1.0
      ],
      "type": "VEC3"
    },
    {
      "bufferView": 1,
      "byteOffset": 176592,
      "componentType": 5126,
      "count": 70,
      "max": [
        0.8750000596046448,
        0.6483979225158691
      ],
      "min": [
        0.125,
        0.10160239040851593
      ],
      "type": "VEC2"
    },
    {
      "bufferView": 1,
      "byteOffset": 177152,
      "componentType": 5126,
      "count": 70,
      "max": [
        0.0,
        0.0
      ],
      "min": [
        0.0,
        0.0
      ],
      "type": "VEC2"
    },
    {
      "bufferView": 0,
      "byteOffset": 233364,
      "componentType": 5125,
      "count": 216,
      "type": "SCALAR"
    },
    {
      "bufferView": 2,
      "byteOffset": 266568,
      "componentType": 5126,
      "count": 972,
      "max": [
        0.05144309997558594,
        0.03111601620912552,
        0.11459280550479889
      ],
      "min": [
        -0.05144309997558594,
        -0.03111601620912552,
        -0.11459280550479889
      ],
      "type": "VEC3"
    },
    {
      "bufferView": 2,
      "byteOffset": 278232,
      "componentType": 5126,
      "count": 972,
      "max": [
        1.0,
        1.0,
        1.0
      ],
      "min": [
        -1.0,
        -1.0,
        -1.0
      ],
      "type": "VEC3"
    },
    {
      "bufferView": 1,
      "byteOffset": 177712,
      "componentType": 5126,
      "count": 972,
      "max": [
        0.7500001192092896,
        0.7500001192092896
      ],
      "min": [
        0.5000000596046448,
        0.5
      ],
      "type": "VEC2"
    },
    {
      "bufferView": 1,
      "byteOffset": 185488,
      "componentType": 5126,
      "count": 972,
      "max": [
        0.5497906804084778,
        0.6108130216598511
      ],
      "min": [
        0.4688839912414551,
        0.4688839912414551
      ],
      "type": "VEC2"
    },
    {
      "bufferView": 0,
      "byteOffset": 234228,
      "componentType": 5125,
      "count": 3840,
      "type": "SCALAR"
    },
    {
      "bufferView": 2,
      "byteOffset": 289896,
      "componentType": 5126,
      "count": 45,
      "max": [
        0.012436965480446815,
        0.019766181707382202,
        0.08968520164489746
      ],
      "min": [
        -0.012436965480446815,
        -0.019766181707382202,
        -0.08968520164489746
      ],
      "type": "VEC3"
    },
    {
      "bufferView": 2,
      "byteOffset": 290436,
      "componentType": 5126,
      "count": 45,
      "max": [
        0.8755786418914795,
        0.8755787014961243,
        0.875578761100769
      ],
      "min": [
        -0.8755786418914795,
        -0.8755787014961243,
        -0.875578761100769
      ],
      "type": "VEC3"
    },
    {
      "bufferView": 1,
      "byteOffset": 193264,
      "componentType": 5126,
      "count": 45,
      "max": [
        0.8347973227500916,
        1.0
      ],
      "min": [
        0.125,
        0.0
      ],
      "type": "VEC2"
    },
    {
      "bufferView": 0,
      "byteOffset": 249588,
      "componentType": 5125,
      "count": 132,
      "type": "SCALAR"
    },
    {
      "bufferView": 2,
      "byteOffset": 290976,
      "componentType": 5126,
      "count": 45,
      "max": [
        0.012436965480446815,
        0.019766181707382202,
        0.08968520164489746
      ],
      "min": [
        -0.012436965480446815,
        -0.019766181707382202,
        -0.08968520164489746
      ],
      "type": "VEC3"
    },
    {
      "bufferView": 2,
      "byteOffset": 291516,
      "componentType": 5126,
      "count": 45,
      "max": [
        0.8755786418914795,
        0.8755787014961243,
        0.875578761100769
      ],
      "min": [
        -0.8755786418914795,
        -0.8755787014961243,
        -0.875578761100769
      ],
      "type": "VEC3"
    },
    {
      "bufferView": 1,
      "byteOffset": 193624,
      "componentType": 5126,
      "count": 45,
      "max": [
        0.8347973227500916,
        1.0
      ],
      "min": [
        0.125,
        0.0
      ],
      "type": "VEC2"
    },
    {
      "bufferView": 0,
      "byteOffset": 250116,
      "componentType": 5125,
      "count": 132,
      "type": "SCALAR"
    },
    {
      "bufferView": 2,
      "byteOffset": 292056,
      "componentType": 5126,
      "count": 1983,
      "max": [
        1.2324844598770142,
        1.2324844598770142,
        1.0000001192092896
      ],
      "min": [
        -1.2324844598770142,
        -1.2324844598770142,
        -1.0000001192092896
      ],
      "type": "VEC3"
    },
    {
      "bufferView": 2,
      "byteOffset": 315852,
      "componentType": 5126,
      "count": 1983,
      "max": [
        1.0,
        1.0,
        1.0
      ],
      "min": [
        -1.0,
        -1.0,
        -1.0
      ],
      "type": "VEC3"
    },
    {
      "bufferView": 1,
      "byteOffset": 193984,
      "componentType": 5126,
      "count": 1983,
      "max": [
        0.8750001192092896,
        1.0000001192092896
      ],
      "min": [
        0.125,
        0.0
      ],
      "type": "VEC2"
    },
    {
      "bufferView": 0,
      "byteOffset": 250644,
      "componentType": 5125,
      "count": 9792,
      "type": "SCALAR"
    },
    {
      "bufferView": 2,
      "byteOffset": 339648,
      "componentType": 5126,
      "count": 1983,
      "max": [
        1.2324844598770142,
        1.2324844598770142,
        1.0000001192092896
      ],
      "min": [
        -1.2324844598770142,
        -1.2324844598770142,
        -1.0000001192092896
      ],
      "type": "VEC3"
    },
    {
      "bufferView": 2,
      "byteOffset": 363444,
      "componentType": 5126,
      "count": 1983,
      "max": [
        1.0,
        1.0,
        1.0
      ],
      "min": [
        -1.0,
        -1.0,
        -1.0
      ],
      "type": "VEC3"
    },
    {
      "bufferView": 1,
      "byteOffset": 209848,
      "componentType": 5126,
      "count": 1983,
      "max": [
        0.8750001192092896,
        1.0000001192092896
      ],
      "min": [
        0.125,
        0.0
      ],
      "type": "VEC2"
    },
    {
      "bufferView": 0,
      "byteOffset": 289812,
      "componentType": 5125,
      "count": 9792,
      "type": "SCALAR"
    },
    {
      "bufferView": 2,
      "byteOffset": 387240,
      "componentType": 5126,
      "count": 1983,
      "max": [
        1.2324844598770142,
        1.2324844598770142,
        1.0000001192092896
      ],
      "min": [
        -1.2324844598770142,
        -1.2324844598770142,
        -1.0000001192092896
      ],
      "type": "VEC3"
    },
    {
      "bufferView": 2,
      "byteOffset": 411036,
      "componentType": 5126,
      "count": 1983,
      "max": [
        1.0,
        1.0,
        1.0
      ],
      "min": [
        -1.0,
        -1.0,
        -1.0
      ],
      "type": "VEC3"
    },
    {
      "bufferView": 1,
      "byteOffset": 225712,
      "componentType": 5126,
      "count": 1983,
      "max": [
        0.8750001192092896,
        1.0000001192092896
      ],
      "min": [
        0.125,
        0.0
      ],
      "type": "VEC2"
    },
    {
      "bufferView": 0,
      "byteOffset": 328980,
      "componentType": 5125,
      "count": 9792,
      "type": "SCALAR"
    },
    {
      "bufferView": 2,
      "byteOffset": 434832,
      "componentType": 5126,
      "count": 1983,
      "max": [
        1.2324844598770142,
        1.2324844598770142,
        1.0000001192092896
      ],
      "min": [
        -1.2324844598770142,
        -1.2324844598770142,
        -1.0000001192092896
      ],
      "type": "VEC3"
    },
    {
      "bufferView": 2,
      "byteOffset": 458628,
      "componentType": 5126,
      "count": 1983,
      "max": [
        1.0,
        1.0,
        1.0
      ],
      "min": [
        -1.0,
        -1.0,
        -1.0
      ],
      "type": "VEC3"
    },
    {
      "bufferView": 1,
      "byteOffset": 241576,
      "componentType": 5126,
      "count": 1983,
      "max": [
        0.8750001192092896,
        1.0000001192092896
      ],
      "min": [
        0.125,
        0.0
      ],
      "type": "VEC2"
    },
    {
      "bufferView": 0,
      "byteOffset": 368148,
      "componentType": 5125,
      "count": 9792,
      "type": "SCALAR"
    },
    {
      "bufferView": 2,
      "byteOffset": 482424,
      "componentType": 5126,
      "count": 256,
      "max": [
        -0.211883544921875,
        0.9992561340332031,
        -0.28888702392578125
      ],
      "min": [
        -1.2215347290039063,
        -1.0007362365722656,
        -1.5210189819335938
      ],
      "type": "VEC3"
    },
    {
      "bufferView": 2,
      "byteOffset": 485496,
      "componentType": 5126,
      "count": 256,
      "max": [
        0.778404712677002,
        0.000590006064157933,
        0.6422981023788452
      ],
      "min": [
        0.7664548754692078,
        0.000428727304097265,
        0.627762496471405
      ],
      "type": "VEC3"
    },
    {
      "bufferView": 1,
      "byteOffset": 257440,
      "componentType": 5126,
      "count": 256,
      "max": [
        1.0000001192092896,
        1.0000001192092896
      ],
      "min": [
        0.0,
        0.0
      ],
      "type": "VEC2"
    },
    {
      "bufferView": 0,
      "byteOffset": 407316,
      "componentType": 5125,
      "count": 384,
      "type": "SCALAR"
    },
    {
      "bufferView": 2,
      "byteOffset": 488568,
      "componentType": 5126,
      "count": 256,
      "max": [
        -0.2094268798828125,
        1.0000190734863281,
        -0.28759002685546875
      ],
      "min": [
        -1.2204360961914063,
        -1.0000343322753906,
        -1.5203933715820313
      ],
      "type": "VEC3"
    },
    {
      "bufferView": 2,
      "byteOffset": 491640,
      "componentType": 5126,
      "count": 256,
      "max": [
        0.7779173851013184,
        3.561804987839423e-05,
        0.6424773335456848
      ],
      "min": [
        0.7663047313690186,
        -2.4865732484613545e-05,
        0.6283665895462036
      ],
      "type": "VEC3"
    },
    {
      "bufferView": 1,
      "byteOffset": 259488,
      "componentType": 5126,
      "count": 256,
      "max": [
        1.0000001192092896,
        1.0000001192092896
      ],
      "min": [
        0.0,
        0.0
      ],
      "type": "VEC2"
    },
    {
      "bufferView": 0,
      "byteOffset": 408852,
      "componentType": 5125,
      "count": 384,
      "type": "SCALAR"
    },
    {
      "bufferView": 2,
      "byteOffset": 494712,
      "componentType": 5126,
      "count": 256,
      "max": [
        -0.2094268798828125,
        1.0000133514404297,
        -0.2875823974609375
      ],
      "min": [
        -1.2204360961914063,
        -1.0,
        -1.5204010009765625
      ],
      "type": "VEC3"
    },
    {
      "bufferView": 2,
      "byteOffset": 497784,
      "componentType": 5126,
      "count": 256,
      "max": [
        0.7779150605201721,
        2.6931384127237834e-05,
        0.6424713134765625
      ],
      "min": [
        0.7663098573684692,
        -4.519083086051978e-05,
        0.6283695101737976
      ],
      "type": "VEC3"
    },
    {
      "bufferView": 1,
      "byteOffset": 261536,
      "componentType": 5126,
      "count": 256,
      "max": [
        1.0000001192092896,
        1.0000001192092896
      ],
      "min": [
        0.0,
        0.0
      ],
      "type": "VEC2"
    },
    {
      "bufferView": 0,
      "byteOffset": 410388,
      "componentType": 5125,
      "count": 384,
      "type": "SCALAR"
    },
    {
      "bufferView": 2,
      "byteOffset": 500856,
      "componentType": 5126,
      "count": 256,
      "max": [
        -0.2094268798828125,
        1.0000190734863281,
        -0.28759002685546875
      ],
      "min": [
        -1.2204360961914063,
        -0.9999160766601563,
        -1.5204010009765625
      ],
      "type": "VEC3"
    },
    {
      "bufferView": 2,
      "byteOffset": 503928,
      "componentType": 5126,
      "count": 256,
      "max": [
        0.7779175639152527,
        4.2505529563641176e-05,
        0.642480194568634
      ],
      "min": [
        0.7663022875785828,
        -3.331375410198234e-05,
        0.6283662915229797
      ],
      "type": "VEC3"
    },
    {
      "bufferView": 1,
      "byteOffset": 263584,
      "componentType": 5126,
      "count": 256,
      "max": [
        1.0000001192092896,
        1.0000001192092896
      ],
      "min": [
        0.0,
        0.0
      ],
      "type": "VEC2"
    },
    {
      "bufferView": 0,
      "byteOffset": 411924,
      "componentType": 5125,
      "count": 384,
      "type": "SCALAR"
    },
    {
      "bufferView": 2,
      "byteOffset": 507000,
      "componentType": 5126,
      "count": 256,
      "max": [
        -0.2094268798828125,
        0.9999051094055176,
        -0.28759002685546875
      ],
      "min": [
        -1.2204360961914063,
        -1.0000176429748535,
        -1.5204010009765625
      ],
      "type": "VEC3"
    },
    {
      "bufferView": 2,
      "byteOffset": 510072,
      "componentType": 5126,
      "count": 256,
      "max": [
        0.7779178023338318,
        3.7318142858566716e-05,
        0.6424893736839294
      ],
      "min": [
        0.766294538974762,
        -3.3319265639875084e-05,
        0.6283661127090454
      ],
      "type": "VEC3"
    },
    {
      "bufferView": 1,
      "byteOffset": 265632,
      "componentType": 5126,
      "count": 256,
      "max": [
        1.0000001192092896,
        1.0000001192092896
      ],
      "min": [
        0.0,
        0.0
      ],
      "type": "VEC2"
    },
    {
      "bufferView": 0,
      "byteOffset": 413460,
      "componentType": 5125,
      "count": 384,
      "type": "SCALAR"
    },
    {
      "bufferView": 2,
      "byteOffset": 513144,
      "componentType": 5126,
      "count": 19864,
      "max": [
        0.22962887585163116,
        1.036656379699707,
        2.6210211217403412e-05
      ],
      "min": [
        -0.22962887585163116,
        -1.036656379699707,
        -0.2543807029724121
      ],
      "type": "VEC3"
    },
    {
      "bufferView": 2,
      "byteOffset": 751512,
      "componentType": 5126,
      "count": 19864,
      "max": [
        1.0,
        1.0,
        1.0
      ],
      "min": [
        -1.0,
        -1.0,
        -1.0
      ],
      "type": "VEC3"
    },
    {
      "bufferView": 1,
      "byteOffset": 267680,
      "componentType": 5126,
      "count": 19864,
      "max": [
        1.000000238418579,
        0.5000000596046448
      ],
      "min": [
        0.0,
        -6.866648050163349e-08
      ],
      "type": "VEC2"
    },
    {
      "bufferView": 0,
      "byteOffset": 414996,
      "componentType": 5125,
      "count": 105240,
      "type": "SCALAR"
    },
    {
      "bufferView": 2,
      "byteOffset": 989880,
      "componentType": 5126,
      "count": 172,
      "max": [
        0.0637269988656044,
        0.06400001049041748,
        4.656612873077393e-10
      ],
      "min": [
        -0.0637269988656044,
        -0.06400001049041748,
        -0.03602638840675354
      ],
      "type": "VEC3"
    },
    {
      "bufferView": 2,
      "byteOffset": 991944,
      "componentType": 5126,
      "count": 172,
      "max": [
        1.0,
        1.0,
        1.0
      ],
      "min": [
        -1.0,
        -1.0,
        -1.0
      ],
      "type": "VEC3"
    },
    {
      "bufferView": 1,
      "byteOffset": 426592,
      "componentType": 5126,
      "count": 172,
      "max": [
        0.0,
        0.0
      ],
      "min": [
        0.0,
        0.0
      ],
      "type": "VEC2"
    },
    {
      "bufferView": 0,
      "byteOffset": 835956,
      "componentType": 5125,
      "count": 468,
      "type": "SCALAR"
    },
    {
      "bufferView": 2,
      "byteOffset": 994008,
      "componentType": 5126,
      "count": 2109,
      "max": [
        1.0,
        1.1382324695587158,
        0.954296886920929
      ],
      "min": [
        -1.0,
        -1.0,
        -0.954296886920929
      ],
      "type": "VEC3"
    },
    {
      "bufferView": 2,
      "byteOffset": 1019316,
      "componentType": 5126,
      "count": 2109,
      "max": [
        1.0,
        1.0,
        1.0
      ],
      "min": [
        -1.0,
        -1.0,
        -1.0
      ],
      "type": "VEC3"
    },
    {
      "bufferView": 1,
      "byteOffset": 427968,
      "componentType": 5126,
      "count": 2109,
      "max": [
        0.875,
        1.0
      ],
      "min": [
        0.14647002518177032,
        0.0
      ],
      "type": "VEC2"
    },
    {
      "bufferView": 0,
      "byteOffset": 837828,
      "componentType": 5125,
      "count": 6252,
      "type": "SCALAR"
    },
    {
      "bufferView": 2,
      "byteOffset": 1044624,
      "componentType": 5126,
      "count": 4153,
      "max": [
        0.6353747248649597,
        1.8066941499710083,
        1.316298246383667
      ],
      "min": [
        -1.1986366510391235,
        -5.9272308349609375,
        -5.087544918060303
      ],
      "type": "VEC3"
    },
    {
      "bufferView": 2,
      "byteOffset": 1094460,
      "componentType": 5126,
      "count": 4153,
      "max": [
        1.0,
        1.0,
        1.0
      ],
      "min": [
        -1.0,
        -1.0,
        -1.0
      ],
      "type": "VEC3"
    },
    {
      "bufferView": 1,
      "byteOffset": 444840,
      "componentType": 5126,
      "count": 4153,
      "max": [
        0.8750001192092896,
        1.0000001192092896
      ],
      "min": [
        0.125,
        0.0
      ],
      "type": "VEC2"
    },
    {
      "bufferView": 0,
      "byteOffset": 862836,
      "componentType": 5125,
      "count": 17472,
      "type": "SCALAR"
    },
    {
      "bufferView": 2,
      "byteOffset": 1144296,
      "componentType": 5126,
      "count": 19864,
      "max": [
        0.22962887585163116,
        1.036656379699707,
        2.6210211217403412e-05
      ],
      "min": [
        -0.22962887585163116,
        -1.036656379699707,
        -0.2543807029724121
      ],
      "type": "VEC3"
    },
    {
      "bufferView": 2,
      "byteOffset": 1382664,
      "componentType": 5126,
      "count": 19864,
      "max": [
        1.0,
        1.0,
        1.0
      ],
      "min": [
        -1.0,
        -1.0,
        -1.0
      ],
      "type": "VEC3"
    },
    {
      "bufferView": 1,
      "byteOffset": 478064,
      "componentType": 5126,
      "count": 19864,
      "max": [
        1.000000238418579,
        0.5000000596046448
      ],
      "min": [
        0.0,
        -6.866648050163349e-08
      ],
      "type": "VEC2"
    },
    {
      "bufferView": 0,
      "byteOffset": 932724,
      "componentType": 5125,
      "count": 105240,
      "type": "SCALAR"
    },
    {
      "bufferView": 2,
      "byteOffset": 1621032,
      "componentType": 5126,
      "count": 172,
      "max": [
        0.0637269988656044,
        0.06400001049041748,
        4.656612873077393e-10
      ],
      "min": [
        -0.0637269988656044,
        -0.06400001049041748,
        -0.03602638840675354
      ],
      "type": "VEC3"
    },
    {
      "bufferView": 2,
      "byteOffset": 1623096,
      "componentType": 5126,
      "count": 172,
      "max": [
        1.0,
        1.0,
        1.0
      ],
      "min": [
        -1.0,
        -1.0,
        -1.0
      ],
      "type": "VEC3"
    },
    {
      "bufferView": 1,
      "byteOffset": 636976,
      "componentType": 5126,
      "count": 172,
      "max": [
        0.0,
        0.0
      ],
      "min": [
        0.0,
        0.0
      ],
      "type": "VEC2"
    },
    {
      "bufferView": 0,
      "byteOffset": 1353684,
      "componentType": 5125,
      "count": 468,
      "type": "SCALAR"
    },
    {
      "bufferView": 2,
      "byteOffset": 1625160,
      "componentType": 5126,
      "count": 2107,
      "max": [
        1.0,
        1.1382324695587158,
        0.954296886920929
      ],
      "min": [
        -0.9999999403953552,
        -1.0,
        -0.954296886920929
      ],
      "type": "VEC3"
    },
    {
      "bufferView": 2,
      "byteOffset": 1650444,
      "componentType": 5126,
      "count": 2107,
      "max": [
        1.0,
        1.0,
        1.0
      ],
      "min": [
        -1.0,
        -1.0,
        -1.0
      ],
      "type": "VEC3"
    },
    {
      "bufferView": 1,
      "byteOffset": 638352,
      "componentType": 5126,
      "count": 2107,
      "max": [
        0.875,
        1.0
      ],
      "min": [
        0.14647001028060913,
        0.0
      ],
      "type": "VEC2"
    },
    {
      "bufferView": 0,
      "byteOffset": 1355556,
      "componentType": 5125,
      "count": 6252,
      "type": "SCALAR"
    },
    {
      "bufferView": 2,
      "byteOffset": 1675728,
      "componentType": 5126,
      "count": 4152,
      "max": [
        0.6353747248649597,
        1.8066941499710083,
        1.316298246383667
      ],
      "min": [
        -1.1986366510391235,
        -5.9272308349609375,
        -5.087544918060303
      ],
      "type": "VEC3"
    },
    {
      "bufferView": 2,
      "byteOffset": 1725552,
      "componentType": 5126,
      "count": 4152,
      "max": [
        1.0,
        1.0,
        1.0
      ],
      "min": [
        -1.0,
        -1.0,
        -1.0
      ],
      "type": "VEC3"
    },
    {
      "bufferView": 1,
      "byteOffset": 655208,
      "componentType": 5126,
      "count": 4152,
      "max": [
        0.8750001192092896,
        1.0000001192092896
      ],
      "min": [
        0.125,
        0.0
      ],
      "type": "VEC2"
    },
    {
      "bufferView": 0,
      "byteOffset": 1380564,
      "componentType": 5125,
      "count": 17472,
      "type": "SCALAR"
    },
    {
      "bufferView": 2,
      "byteOffset": 1775376,
      "componentType": 5126,
      "count": 19864,
      "max": [
        0.22962887585163116,
        1.036656379699707,
        2.6210211217403412e-05
      ],
      "min": [
        -0.22962887585163116,
        -1.036656379699707,
        -0.2543807029724121
      ],
      "type": "VEC3"
    },
    {
      "bufferView": 2,
      "byteOffset": 2013744,
      "componentType": 5126,
      "count": 19864,
      "max": [
        1.0,
        1.0,
        1.0
      ],
      "min": [
        -1.0,
        -1.0,
        -1.0
      ],
      "type": "VEC3"
    },
    {
      "bufferView": 1,
      "byteOffset": 688424,
      "componentType": 5126,
      "count": 19864,
      "max": [
        1.000000238418579,
        0.5000000596046448
      ],
      "min": [
        0.0,
        -6.866648050163349e-08
      ],
      "type": "VEC2"
    },
    {
      "bufferView": 0,
      "byteOffset": 1450452,
      "componentType": 5125,
      "count": 105240,
      "type": "SCALAR"
    },
    {
      "bufferView": 2,
      "byteOffset": 2252112,
      "componentType": 5126,
      "count": 172,
      "max": [
        0.0637269988656044,
        0.06400001049041748,
        4.656612873077393e-10
      ],
      "min": [
        -0.0637269988656044,
        -0.06400001049041748,
        -0.03602638840675354
      ],
      "type": "VEC3"
    },
    {
      "bufferView": 2,
      "byteOffset": 2254176,
      "componentType": 5126,
      "count": 172,
      "max": [
        1.0,
        1.0,
        1.0
      ],
      "min": [
        -1.0,
        -1.0,
        -1.0
      ],
      "type": "VEC3"
    },
    {
      "bufferView": 1,
      "byteOffset": 847336,
      "componentType": 5126,
      "count": 172,
      "max": [
        0.0,
        0.0
      ],
      "min": [
        0.0,
        0.0
      ],
      "type": "VEC2"
    },
    {
      "bufferView": 0,
      "byteOffset": 1871412,
      "componentType": 5125,
      "count": 468,
      "type": "SCALAR"
    },
    {
      "bufferView": 2,
      "byteOffset": 2256240,
      "componentType": 5126,
      "count": 2119,
      "max": [
        1.000000238418579,
        1.1382322311401367,
        0.954296886920929
      ],
      "min": [
        -0.9999997615814209,
        -1.000000238418579,
        -0.954296886920929
      ],
      "type": "VEC3"
    },
    {
      "bufferView": 2,
      "byteOffset": 2281668,
      "componentType": 5126,
      "count": 2119,
      "max": [
        1.0,
        1.0,
        1.0
      ],
      "min": [
        -1.0,
        -1.0,
        -1.0
      ],
      "type": "VEC3"
    },
    {
      "bufferView": 1,
      "byteOffset": 848712,
      "componentType": 5126,
      "count": 2119,
      "max": [
        0.875,
        1.0
      ],
      "min": [
        0.14646989107131958,
        0.0
      ],
      "type": "VEC2"
    },
    {
      "bufferView": 0,
      "byteOffset": 1873284,
      "componentType": 5125,
      "count": 6252,
      "type": "SCALAR"
    },
    {
      "bufferView": 2,
      "byteOffset": 2307096,
      "componentType": 5126,
      "count": 4152,
      "max": [
        0.6353747248649597,
        1.8066941499710083,
        1.316298246383667
      ],
      "min": [
        -1.1986366510391235,
        -5.9272308349609375,
        -5.087544918060303
      ],
      "type": "VEC3"
    },
    {
      "bufferView": 2,
      "byteOffset": 2356920,
      "componentType": 5126,
      "count": 4152,
      "max": [
        1.0,
        1.0,
        1.0
      ],
      "min": [
        -1.0,
        -1.0,
        -1.0
      ],
      "type": "VEC3"
    },
    {
      "bufferView": 1,
      "byteOffset": 865664,
      "componentType": 5126,
      "count": 4152,
      "max": [
        0.8750001192092896,
        1.0000001192092896
      ],
      "min": [
        0.125,
        0.0
      ],
      "type": "VEC2"
    },
    {
      "bufferView": 0,
      "byteOffset": 1898292,
      "componentType": 5125,
      "count": 17472,
      "type": "SCALAR"
    },
    {
      "bufferView": 2,
      "byteOffset": 2406744,
      "componentType": 5126,
      "count": 62,
      "max": [
        11.782235145568848,
        6.4775543212890625,
        3.0517578125e-05
      ],
      "min": [
        -11.782235145568848,
        -1.0,
        0.0
      ],
      "type": "VEC3"
    },
    {
      "bufferView": 2,
      "byteOffset": 2407488,
      "componentType": 5126,
      "count": 62,
      "max": [
        0.0,
        0.0,
        1.0
      ],
      "min": [
        0.0,
        0.0,
        1.0
      ],
      "type": "VEC3"
    },
    {
      "bufferView": 1,
      "byteOffset": 898880,
      "componentType": 5126,
      "count": 62,
      "max": [
        1.0,
        1.0
      ],
      "min": [
        0.0,
        0.0
      ],
      "type": "VEC2"
    },
    {
      "bufferView": 0,
      "byteOffset": 1968180,
      "componentType": 5125,
      "count": 174,
      "type": "SCALAR"
    },
    {
      "bufferView": 2,
      "byteOffset": 2408232,
      "componentType": 5126,
      "count": 19864,
      "max": [
        0.22962887585163116,
        1.036656379699707,
        2.6210211217403412e-05
      ],
      "min": [
        -0.22962887585163116,
        -1.036656379699707,
        -0.2543807029724121
      ],
      "type": "VEC3"
    },
    {
      "bufferView": 2,
      "byteOffset": 2646600,
      "componentType": 5126,
      "count": 19864,
      "max": [
        1.0,
        1.0,
        1.0
      ],
      "min": [
        -1.0,
        -1.0,
        -1.0
      ],
      "type": "VEC3"
    },
    {
      "bufferView": 1,
      "byteOffset": 899376,
      "componentType": 5126,
      "count": 19864,
      "max": [
        1.000000238418579,
        0.5000000596046448
      ],
      "min": [
        0.0,
        -6.866648050163349e-08
      ],
      "type": "VEC2"
    },
    {
      "bufferView": 0,
      "byteOffset": 1968876,
      "componentType": 5125,
      "count": 105240,
      "type": "SCALAR"
    },
    {
      "bufferView": 2,
      "byteOffset": 2884968,
      "componentType": 5126,
      "count": 172,
      "max": [
        0.0637269988656044,
        0.06400001049041748,
        4.656612873077393e-10
      ],
      "min": [
        -0.0637269988656044,
        -0.06400001049041748,
        -0.03602638840675354
      ],
      "type": "VEC3"
    },
    {
      "bufferView": 2,
      "byteOffset": 2887032,
      "componentType": 5126,
      "count": 172,
      "max": [
        1.0,
        1.0,
        1.0
      ],
      "min": [
        -1.0,
        -1.0,
        -1.0
      ],
      "type": "VEC3"
    },
    {
      "bufferView": 1,
      "byteOffset": 1058288,
      "componentType": 5126,
      "count": 172,
      "max": [
        0.0,
        0.0
      ],
      "min": [
        0.0,
        0.0
      ],
      "type": "VEC2"
    },
    {
      "bufferView": 0,
      "byteOffset": 2389836,
      "componentType": 5125,
      "count": 468,
      "type": "SCALAR"
    },
    {
      "bufferView": 2,
      "byteOffset": 2889096,
      "componentType": 5126,
      "count": 2103,
      "max": [
        0.9999995231628418,
        1.1382324695587158,
        0.954296886920929
      ],
      "min": [
        -1.0000004768371582,
        -1.0,
        -0.954296886920929
      ],
      "type": "VEC3"
    },
    {
      "bufferView": 2,
      "byteOffset": 2914332,
      "componentType": 5126,
      "count": 2103,
      "max": [
        1.0,
        1.0,
        1.0
      ],
      "min": [
        -1.0,
        -1.0,
        -1.0
      ],
      "type": "VEC3"
    },
    {
      "bufferView": 1,
      "byteOffset": 1059664,
      "componentType": 5126,
      "count": 2103,
      "max": [
        0.875,
        1.0
      ],
      "min": [
        0.14646996557712555,
        0.0
      ],
      "type": "VEC2"
    },
    {
      "bufferView": 0,
      "byteOffset": 2391708,
      "componentType": 5125,
      "count": 6252,
      "type": "SCALAR"
    },
    {
      "bufferView": 2,
      "byteOffset": 2939568,
      "componentType": 5126,
      "count": 4152,
      "max": [
        0.6353747248649597,
        1.8066941499710083,
        1.316298246383667
      ],
      "min": [
        -1.1986366510391235,
        -5.9272308349609375,
        -5.087544918060303
      ],
      "type": "VEC3"
    },
    {
      "bufferView": 2,
      "byteOffset": 2989392,
      "componentType": 5126,
      "count": 4152,
      "max": [
        1.0,
        1.0,
        1.0
      ],
      "min": [
        -1.0,
        -1.0,
        -1.0
      ],
      "type": "VEC3"
    },
    {
      "bufferView": 1,
      "byteOffset": 1076488,
      "componentType": 5126,
      "count": 4152,
      "max": [
        0.8750001192092896,
        1.0000001192092896
      ],
      "min": [
        0.125,
        0.0
      ],
      "type": "VEC2"
    },
    {
      "bufferView": 0,
      "byteOffset": 2416716,
      "componentType": 5125,
      "count": 17472,
      "type": "SCALAR"
    }
  ],
  "asset": {
    "extras": {
      "author": "karakocyunus (https://sketchfab.com/karakoc)",
      "license": "CC-BY-4.0 (http://creativecommons.org/licenses/by/4.0/)",
      "source": "https://sketchfab.com/3d-models/nas-storage-device-ade9536b36bf405e9fb91494d5dc506a",
      "title": "NAS Storage Device"
    },
    "generator": "Sketchfab-14.15.0",
    "version": "2.0"
  },
  "bufferViews": [
    {
      "buffer": 0,
      "byteLength": 2486604,
      "name": "floatBufferViews",
      "target": 34963
    },
    {
      "buffer": 0,
      "byteLength": 1109704,
      "byteOffset": 2486604,
      "byteStride": 8,
      "name": "floatBufferViews",
      "target": 34962
    },
    {
      "buffer": 0,
      "byteLength": 3039216,
      "byteOffset": 3596308,
      "byteStride": 12,
      "name": "floatBufferViews",
      "target": 34962
    }
  ],
  "buffers": [
    {
      "byteLength": 6635524,
      "uri": "scene.bin"
    }
  ],
  "materials": [
    {
      "doubleSided": true,
      "name": "Cube.014__0",
      "pbrMetallicRoughness": {
        "baseColorFactor": [
          0.019708368943048015,
          0.019708368943048015,
          0.019708368943048015,
          1.0
        ],
        "metallicFactor": 0.0,
        "roughnessFactor": 0.6
      }
    },
    {
      "doubleSided": true,
      "name": "Plastic_Base_01",
      "pbrMetallicRoughness": {
        "baseColorFactor": [
          0.003817572869280599,
          0.003817572869280599,
          0.003817572869280599,
          1.0
        ],
        "metallicFactor": 0.0,
        "roughnessFactor": 0.8211145618000169
      }
    },
    {
      "doubleSided": true,
      "name": "Material.001",
      "pbrMetallicRoughness": {
        "baseColorFactor": [
          0.0,
          0.0,
          0.0,
          1.0
        ],
        "metallicFactor": 0.0
      }
    },
    {
      "doubleSided": true,
      "name": "Metal",
      "pbrMetallicRoughness": {
        "baseColorFactor": [
          0.4987199530935721,
          0.4987199530935721,
          0.4987199530935721,
          1.0
        ],
        "roughnessFactor": 0.0
      }
    },
    {
      "doubleSided": true,
      "name": "Material.003",
      "pbrMetallicRoughness": {
        "baseColorFactor": [
          0.0231534,
          0.124772,
          0.434154,
          1.0
        ],
        "metallicFactor": 0.0,
        "roughnessFactor": 0.9719361693600365
      }
    },
    {
      "doubleSided": true,
      "name": "Material.004",
      "pbrMetallicRoughness": {
        "baseColorFactor": [
          0.0,
          0.0,
          0.0,
          1.0
        ],
        "metallicFactor": 0.0,
        "roughnessFactor": 0.8040408205773457
      }
    },
    {
      "doubleSided": true,
      "emissiveFactor": [
        0.1251822535836341,
        1.0,
        0.0
      ],
      "name": "Material.002",
      "pbrMetallicRoughness": {
        "baseColorFactor": [
          0.005097615027984849,
          1.0,
          0.0,
          1.0
        ],
        "metallicFactor": 0.0,
        "roughnessFactor": 0.8040408205773457
      }
    },
    {
      "doubleSided": true,
      "name": "Plastic_Base_01.001",
      "pbrMetallicRoughness": {
        "baseColorFactor": [
          0.003438144294573975,
          0.003438144294573975,
          0.003438144294573975,
          1.0
        ],
        "metallicFactor": 0.0,
        "roughnessFactor": 0.8211145618000169
      }
    },
    {
      "doubleSided": true,
      "emissiveFactor": [
        0.0,
        0.09615739678686744,
        1.0
      ],
      "name": "Material.006",
      "pbrMetallicRoughness": {
        "baseColorFactor": [
          0.2438378681299503,
          0.6931279647404828,
          1.0,
          1.0
        ],
        "metallicFactor": 0.0,
        "roughnessFactor": 0.8040408205773457
      }
    }
  ],
  "meshes": [
    {
      "name": "Cube_Plastic Base 01_0",
      "primitives": [
        {
          "attributes": {
            "NORMAL": 1,
            "POSITION": 0,
            "TEXCOORD_0": 2,
            "TEXCOORD_1": 3
          },
          "indices": 4,
          "material": 1,
          "mode": 4
        }
      ]
    },
    {
      "name": "Cube_Material.001_0",
      "primitives": [
        {
          "attributes": {
            "NORMAL": 6,
            "POSITION": 5,
            "TEXCOORD_0": 7,
            "TEXCOORD_1": 8
          },
          "indices": 9,
          "material": 2,
          "mode": 4
        }
      ]
    },
    {
      "name": "Cube.004_Metal_0",
      "primitives": [
        {
          "attributes": {
            "NORMAL": 11,
            "POSITION": 10,
            "TEXCOORD_0": 12,
            "TEXCOORD_1": 13
          },
          "indices": 14,
          "material": 3,
          "mode": 4
        }
      ]
    },
    {
      "name": "Cube.005_Material.003_0",
      "primitives": [
        {
          "attributes": {
            "NORMAL": 16,
            "POSITION": 15,
            "TEXCOORD_0": 17
          },
          "indices": 18,
          "material": 4,
          "mode": 4
        }
      ]
    },
    {
      "name": "Cube.006_Material.004_0",
      "primitives": [
        {
          "attributes": {
            "NORMAL": 20,
            "POSITION": 19,
            "TEXCOORD_0": 21
          },
          "indices": 22,
          "material": 5,
          "mode": 4
        }
      ]
    },
    {
      "name": "Cube.007_Plastic Base 01_0",
      "primitives": [
        {
          "attributes": {
            "NORMAL": 24,
            "POSITION": 23,
            "TEXCOORD_0": 25
          },
          "indices": 26,
          "material": 1,
          "mode": 4
        }
      ]
    },
    {
      "name": "Cube.008_Plastic Base 01_0",
      "primitives": [
        {
          "attributes": {
            "NORMAL": 28,
            "POSITION": 27,
            "TEXCOORD_0": 29
          },
          "indices": 30,
          "material": 1,
          "mode": 4
        }
      ]
    },
    {
      "name": "Cube.009_Plastic Base 01_0",
      "primitives": [
        {
          "attributes": {
            "NORMAL": 32,
            "POSITION": 31,
            "TEXCOORD_0": 33
          },
          "indices": 34,
          "material": 1,
          "mode": 4
        }
      ]
    },
    {
      "name": "Cube.010_Plastic Base 01_0",
      "primitives": [
        {
          "attributes": {
            "NORMAL": 36,
            "POSITION": 35,
            "TEXCOORD_0": 37
          },
          "indices": 38,
          "material": 1,
          "mode": 4
        }
      ]
    },
    {
      "name": "Plane.006_Material.002_0",
      "primitives": [
        {
          "attributes": {
            "NORMAL": 40,
            "POSITION": 39,
            "TEXCOORD_0": 41
          },
          "indices": 42,
          "material": 6,
          "mode": 4
        }
      ]
    },
    {
      "name": "Plane.007_Material.002_0",
      "primitives": [
        {
          "attributes": {
            "NORMAL": 44,
            "POSITION": 43,
            "TEXCOORD_0": 45
          },
          "indices": 46,
          "material": 6,
          "mode": 4
        }
      ]
    },
    {
      "name": "Plane.008_Material.002_0",
      "primitives": [
        {
          "attributes": {
            "NORMAL": 48,
            "POSITION": 47,
            "TEXCOORD_0": 49
          },
          "indices": 50,
          "material": 6,
          "mode": 4
        }
      ]
    },
    {
      "name": "Plane.009_Material.002_0",
      "primitives": [
        {
          "attributes": {
            "NORMAL": 52,
            "POSITION": 51,
            "TEXCOORD_0": 53
          },
          "indices": 54,
          "material": 6,
          "mode": 4
        }
      ]
    },
    {
      "name": "Plane.010_Material.002_0",
      "primitives": [
        {
          "attributes": {
            "NORMAL": 56,
            "POSITION": 55,
            "TEXCOORD_0": 57
          },
          "indices": 58,
          "material": 6,
          "mode": 4
        }
      ]
    },
    {
      "name": "Plane.001_Plastic Base 01.001_0",
      "primitives": [
        {
          "attributes": {
            "NORMAL": 60,
            "POSITION": 59,
            "TEXCOORD_0": 61
          },
          "indices": 62,
          "material": 7,
          "mode": 4
        }
      ]
    },
    {
      "name": "Circle.003_Plastic Base 01.001_0",
      "primitives": [
        {
          "attributes": {
            "NORMAL": 64,
            "POSITION": 63,
            "TEXCOORD_0": 65
          },
          "indices": 66,
          "material": 7,
          "mode": 4
        }
      ]
    },
    {
      "name": "Cube.013_Plastic Base 01_0",
      "primitives": [
        {
          "attributes": {
            "NORMAL": 68,
            "POSITION": 67,
            "TEXCOORD_0": 69
          },
          "indices": 70,
          "material": 1,
          "mode": 4
        }
      ]
    },
    {
      "name": "Cube.014__0",
      "primitives": [
        {
          "attributes": {
            "NORMAL": 72,
            "POSITION": 71,
            "TEXCOORD_0": 73
          },
          "indices": 74,
          "material": 0,
          "mode": 4
        }
      ]
    },
    {
      "name": "Plane.002_Plastic Base 01.001_0",
      "primitives": [
        {
          "attributes": {
            "NORMAL": 76,
            "POSITION": 75,
            "TEXCOORD_0": 77
          },
          "indices": 78,
          "material": 7,
          "mode": 4
        }
      ]
    },
    {
      "name": "Circle.006_Plastic Base 01.001_0",
      "primitives": [
        {
          "attributes": {
            "NORMAL": 80,
            "POSITION": 79,
            "TEXCOORD_0": 81
          },
          "indices": 82,
          "material": 7,
          "mode": 4
        }
      ]
    },
    {
      "name": "Cube.015_Plastic Base 01_0",
      "primitives": [
        {
          "attributes": {
            "NORMAL": 84,
            "POSITION": 83,
            "TEXCOORD_0": 85
          },
          "indices": 86,
          "material": 1,
          "mode": 4
        }
      ]
    },
    {
      "name": "Cube.016__0",
      "primitives": [
        {
          "attributes": {
            "NORMAL": 88,
            "POSITION": 87,
            "TEXCOORD_0": 89
          },
          "indices": 90,
          "material": 0,
          "mode": 4
        }
      ]
    },
    {
      "name": "Plane.003_Plastic Base 01.001_0",
      "primitives": [
        {
          "attributes": {
            "NORMAL": 92,
            "POSITION": 91,
            "TEXCOORD_0": 93
          },
          "indices": 94,
          "material": 7,
          "mode": 4
        }
      ]
    },
    {
      "name": "Circle.009_Plastic Base 01.001_0",
      "primitives": [
        {
          "attributes": {
            "NORMAL": 96,
            "POSITION": 95,
            "TEXCOORD_0": 97
          },
          "indices": 98,
          "material": 7,
          "mode": 4
        }
      ]
    },
    {
      "name": "Cube.017_Plastic Base 01_0",
      "primitives": [
        {
          "attributes": {
            "NORMAL": 100,
            "POSITION": 99,
            "TEXCOORD_0": 101
          },
          "indices": 102,
          "material": 1,
          "mode": 4
        }
      ]
    },
    {
      "name": "Cube.018__0",
      "primitives": [
        {
          "attributes": {
            "NORMAL": 104,
            "POSITION": 103,
            "TEXCOORD_0": 105
          },
          "indices": 106,
          "material": 0,
          "mode": 4
        }
      ]
    },
    {
      "name": "Plane.004_Material.006_0",
      "primitives": [
        {
          "attributes": {
            "NORMAL": 108,
            "POSITION": 107,
            "TEXCOORD_0": 109
          },
          "indices": 110,
          "material": 8,
          "mode": 4
        }
      ]
    },
    {
      "name": "Plane.011_Plastic Base 01.001_0",
      "primitives": [
        {
          "attributes": {
            "NORMAL": 112,
            "POSITION": 111,
            "TEXCOORD_0": 113
          },
          "indices": 114,
          "material": 7,
          "mode": 4
        }
      ]
    },
    {
      "name": "Circle.012_Plastic Base 01.001_0",
      "primitives": [
        {
          "attributes": {
            "NORMAL": 116,
            "POSITION": 115,
            "TEXCOORD_0": 117
          },
          "indices": 118,
          "material": 7,
          "mode": 4
        }
      ]
    },
    {
      "name": "Cube.011_Plastic Base 01_0",
      "primitives": [
        {
          "attributes": {
            "NORMAL": 120,
            "POSITION": 119,
            "TEXCOORD_0": 121
          },
          "indices": 122,
          "material": 1,
          "mode": 4
        }
      ]
    },
    {
      "name": "Cube.012__0",
      "primitives": [
        {
          "attributes": {
            "NORMAL": 124,
            "POSITION": 123,
            "TEXCOORD_0": 125
          },
          "indices": 126,
          "material": 0,
          "mode": 4
        }
      ]
    }
  ],
  "nodes": [
    {
      "children": [
        1
      ],
      "matrix": [
        1.0,
        0.0,
        0.0,
        0.0,
        0.0,
        2.220446049250313e-16,
        -1.0,
        0.0,
        0.0,
        1.0,
        2.220446049250313e-16,
        0.0,
        0.0,
        0.0,
        0.0,
        1.0
      ],
      "name": "Sketchfab_model"
    },
    {
      "children": [
        2
      ],
      "matrix": [
        0.009999999776482582,
        0.0,
        0.0,
        0.0,
        0.0,
        0.0,
        0.009999999776482582,
        0.0,
        0.0,
        -0.009999999776482582,
        0.0,
        0.0,
        0.0,
        0.0,
        0.0,
        1.0
      ],
      "name": "f0a5eb0e74c84b35b6c119efce01cc0c.fbx"
    },
    {
      "children": [
        3,
        6,
        8,
        10,
        12,
        14,
        16,
        18,
        20,
        22,
        24,
        26,
        28,
        30,
        38,
        46,
        54,
        56
      ],
      "name": "RootNode"
    },
    {
      "children": [
        4,
        5
      ],
      "matrix": [
        100.0,
        0.0,
        0.0,
        0.0,
        0.0,
        -1.629206793918314e-05,
        -99.99999999999868,
        0.0,
        0.0,
        99.99999999999868,
        -1.629206793918314e-05,
        0.0,
        0.0,
        -2.8914616107940674,
        290.9703674316406,
        1.0
      ],
      "name": "Cube"
    },
    {
      "mesh": 0,
      "name": "Cube_Plastic Base 01_0"
    },
    {
      "mesh": 1,
      "name": "Cube_Material.001_0"
    },
    {
      "children": [
        7
      ],
      "matrix": [
        100.0,
        0.0,
        0.0,
        0.0,
        0.0,
        -1.629206793918314e-05,
        -99.99999999999868,
        0.0,
        0.0,
        99.99999999999868,
        -1.629206793918314e-05,
        0.0,
        151.50152587890625,
        -72.27351379394531,
        443.66448974609375,
        1.0
      ],
      "name": "Cube.004"
    },
    {
      "mesh": 2,
      "name": "Cube.004_Metal_0"
    },
    {
      "children": [
        9
      ],
      "matrix": [
        100.0,
        0.0,
        0.0,
        0.0,
        0.0,
        -2.2296943927245982e-05,
        -136.85766601562318,
        0.0,
        0.0,
        99.99999999999868,
        -1.629206793918314e-05,
        0.0,
        153.4577178955078,
        -72.40574645996094,
        442.3064270019531,
        1.0
      ],
      "name": "Cube.005"
    },
    {
      "mesh": 3,
      "name": "Cube.005_Material.003_0"
    },
    {
      "children": [
        11
      ],
      "matrix": [
        528.0955200195313,
        0.0,
        0.0,
        0.0,
        0.0,
        -6.5731319618601704e-06,
        -40.34559631347603,
        0.0,
        0.0,
        160.7088928222635,
        -2.6182802002912535e-05,
        0.0,
        150.5775146484375,
        -72.12017059326172,
        442.22808837890625,
        1.0
      ],
      "name": "Cube.006"
    },
    {
      "mesh": 4,
      "name": "Cube.006_Material.004_0"
    },
    {
      "children": [
        13
      ],
      "matrix": [
        8.728103637695313,
        0.0,
        0.0,
        0.0,
        0.0,
        -7.941212382780811e-07,
        -4.874281406402523,
        0.0,
        0.0,
        4.874281406402523,
        -7.941212382780811e-07,
        0.0,
        157.0481719970703,
        -149.9420623779297,
        423.8583984375,
        1.0
      ],
      "name": "Cube.007"
    },
    {
      "mesh": 5,
      "name": "Cube.007_Plastic Base 01_0"
    },
    {
      "children": [
        15
      ],
      "matrix": [
        8.728103637695313,
        0.0,
        0.0,
        0.0,
        0.0,
        -7.941212382780811e-07,
        -4.874281406402523,
        0.0,
        0.0,
        4.874281406402523,
        -7.941212382780811e-07,
        0.0,
        157.0481719970703,
        -149.9420623779297,
        153.23899841308594,
        1.0
      ],
      "name": "Cube.008"
    },
    {
      "mesh": 6,
      "name": "Cube.008_Plastic Base 01_0"
    },
    {
      "children": [
        17
      ],
      "matrix": [
        8.728103637695313,
        0.0,
        0.0,
        0.0,
        -0.0,
        -7.941212382780811e-07,
        -4.874281406402523,
        0.0,
        0.0,
        4.874281406402523,
        -7.941212382780811e-07,
        0.0,
        -155.8653106689453,
        -149.9420623779297,
        423.8583984375,
        1.0
      ],
      "name": "Cube.009"
    },
    {
      "mesh": 7,
      "name": "Cube.009_Plastic Base 01_0"
    },
    {
      "children": [
        19
      ],
      "matrix": [
        8.728103637695313,
        0.0,
        0.0,
        0.0,
        -0.0,
        -7.941212382780811e-07,
        -4.874281406402523,
        0.0,
        0.0,
        4.874281406402523,
        -7.941212382780811e-07,
        0.0,
        -155.8653106689453,
        -149.9420623779297,
        153.23899841308594,
        1.0
      ],
      "name": "Cube.010"
    },
    {
      "mesh": 8,
      "name": "Cube.010_Plastic Base 01_0"
    },
    {
      "children": [
        21
      ],
      "matrix": [
        2.5297021865844727,
        0.0,
        0.0,
        0.0,
        0.0,
        2.027846813201902,
        8.863999943789256e-08,
        0.0,
        0.0,
        -8.863999943789256e-08,
        2.027846813201902,
        0.0,
        178.44790649414063,
        85.0298080444336,
        442.68927001953125,
        1.0
      ],
      "name": "Plane.006"
    },
    {
      "mesh": 9,
      "name": "Plane.006_Material.002_0"
    },
    {
      "children": [
        23
      ],
      "matrix": [
        2.5297021865844727,
        0.0,
        0.0,
        0.0,
        0.0,
        2.027846813201902,
        8.863999943789256e-08,
        0.0,
        0.0,
        -8.863999943789256e-08,
        2.027846813201902,
        0.0,
        178.44790649414063,
        66.68572998046875,
        442.68927001953125,
        1.0
      ],
      "name": "Plane.007"
    },
    {
      "mesh": 10,
      "name": "Plane.007_Material.002_0"
    },
    {
      "children": [
        25
      ],
      "matrix": [
        2.5297021865844727,
        0.0,
        0.0,
        0.0,
        0.0,
        2.027846813201902,
        8.863999943789256e-08,
        0.0,
        0.0,
        -8.863999943789256e-08,
        2.027846813201902,
        0.0,
        178.44790649414063,
        48.95737075805664,
        442.68927001953125,
        1.0
      ],
      "name": "Plane.008"
    },
    {
      "mesh": 11,
      "name": "Plane.008_Material.002_0"
    },
    {
      "children": [
        27
      ],
      "matrix": [
        2.5297021865844727,
        0.0,
        0.0,
        0.0,
        0.0,
        2.027846813201902,
        8.863999943789256e-08,
        0.0,
        0.0,
        -8.863999943789256e-08,
        2.027846813201902,
        0.0,
        178.44790649414063,
        31.122854232788086,
        442.68927001953125,
        1.0
      ],
      "name": "Plane.009"
    },
    {
      "mesh": 12,
      "name": "Plane.009_Material.002_0"
    },
    {
      "children": [
        29
      ],
      "matrix": [
        2.5297021865844727,
        0.0,
        0.0,
        0.0,
        0.0,
        2.027846813201902,
        8.863999943789256e-08,
        0.0,
        0.0,
        -8.863999943789256e-08,
        2.027846813201902,
        0.0,
        178.44790649414063,
        13.076022148132324,
        442.68927001953125,
        1.0
      ],
      "name": "Plane.010"
    },
    {
      "mesh": 13,
      "name": "Plane.010_Material.002_0"
    },
    {
      "children": [
        31,
        32,
        34
      ],
      "matrix": [
        100.0,
        0.0,
        0.0,
        0.0,
        0.0,
        99.9999999999999,
        4.371138828673792e-06,
        0.0,
        0.0,
        -4.371138828673792e-06,
        99.9999999999999,
        0.0,
        -44.42315673828125,
        2.1583969593048096,
        441.03436279296875,
        1.0
      ],
      "name": "Plane.001"
    },
    {
      "mesh": 14,
      "name": "Plane.001_Plastic Base 01.001_0"
    },
    {
      "children": [
        33
      ],
      "matrix": [
        1.0,
        0.0,
        0.0,
        0.0,
        0.0,
        1.0,
        0.0,
        0.0,
        0.0,
        0.0,
        1.0,
        0.0,
        -0.00012874603271484375,
        -0.5875781178474426,
        0.0005769729614257813,
        1.0
      ],
      "name": "Circle.003"
    },
    {
      "mesh": 15,
      "name": "Circle.003_Plastic Base 01.001_0"
    },
    {
      "children": [
        35,
        36
      ],
      "matrix": [
        0.18235743045806885,
        0.0,
        0.0,
        0.0,
        0.0,
        -1.6292067939183141e-07,
        -0.9999999999999868,
        0.0,
        0.0,
        0.8621981739997749,
        -1.4046991227844168e-07,
        0.0,
        0.0039871931076049805,
        0.039127301424741745,
        -1.0480351448059082,
        1.0
      ],
      "name": "Cube.013"
    },
    {
      "mesh": 16,
      "name": "Cube.013_Plastic Base 01_0"
    },
    {
      "children": [
        37
      ],
      "matrix": [
        1.0585023164749146,
        0.0,
        0.0,
        0.0,
        0.0,
        0.19302575290203094,
        0.0,
        0.0,
        0.0,
        0.0,
        0.22387631237506866,
        0.0,
        -0.6089389324188232,
        0.4961678981781006,
        0.41328665614128113,
        1.0
      ],
      "name": "Cube.014"
    },
    {
      "mesh": 17,
      "name": "Cube.014__0"
    },
    {
      "children": [
        39,
        40,
        42
      ],
      "matrix": [
        100.0,
        0.0,
        0.0,
        0.0,
        0.0,
        99.9999999999999,
        4.371138828673792e-06,
        0.0,
        0.0,
        -4.371138828673792e-06,
        99.9999999999999,
        0.0,
        10.762458801269531,
        2.1583969593048096,
        441.03436279296875,
        1.0
      ],
      "name": "Plane.002"
    },
    {
      "mesh": 18,
      "name": "Plane.002_Plastic Base 01.001_0"
    },
    {
      "children": [
        41
      ],
      "matrix": [
        1.0,
        0.0,
        0.0,
        0.0,
        0.0,
        1.0,
        0.0,
        0.0,
        0.0,
        0.0,
        1.0,
        0.0,
        -0.00012880563735961914,
        -0.5875781178474426,
        0.0005769729614257813,
        1.0
      ],
      "name": "Circle.006"
    },
    {
      "mesh": 19,
      "name": "Circle.006_Plastic Base 01.001_0"
    },
    {
      "children": [
        43,
        44
      ],
      "matrix": [
        0.18235743045806885,
        0.0,
        0.0,
        0.0,
        0.0,
        -1.6292067939183141e-07,
        -0.9999999999999868,
        0.0,
        0.0,
        0.8621981739997749,
        -1.4046991227844168e-07,
        0.0,
        0.0039871931076049805,
        0.039127301424741745,
        -1.0480351448059082,
        1.0
      ],
      "name": "Cube.015"
    },
    {
      "mesh": 20,
      "name": "Cube.015_Plastic Base 01_0"
    },
    {
      "children": [
        45
      ],
      "matrix": [
        1.0585023164749146,
        0.0,
        0.0,
        0.0,
        0.0,
        0.19302575290203094,
        0.0,
        0.0,
        0.0,
        0.0,
        0.22387631237506866,
        0.0,
        -0.6089388132095337,
        0.4961678981781006,
        0.41328665614128113,
        1.0
      ],
      "name": "Cube.016"
    },
    {
      "mesh": 21,
      "name": "Cube.016__0"
    },
    {
      "children": [
        47,
        48,
        50
      ],
      "matrix": [
        100.0,
        0.0,
        0.0,
        0.0,
        0.0,
        99.9999999999999,
        4.371138828673792e-06,
        0.0,
        0.0,
        -4.371138828673792e-06,
        99.9999999999999,
        0.0,
        66.21597290039063,
        2.1583969593048096,
        437.2696838378906,
        1.0
      ],
      "name": "Plane.003"
    },
    {
      "mesh": 22,
      "name": "Plane.003_Plastic Base 01.001_0"
    },
    {
      "children": [
        49
      ],
      "matrix": [
        1.0,
        0.0,
        0.0,
        0.0,
        0.0,
        1.0,
        0.0,
        0.0,
        0.0,
        0.0,
        1.0,
        0.0,
        -0.00012880563735961914,
        -0.5875781178474426,
        0.0005769729614257813,
        1.0
      ],
      "name": "Circle.009"
    },
    {
      "mesh": 23,
      "name": "Circle.009_Plastic Base 01.001_0"
    },
    {
      "children": [
        51,
        52
      ],
      "matrix": [
        0.18235743045806885,
        0.0,
        0.0,
        0.0,
        0.0,
        -1.6292067939183141e-07,
        -0.9999999999999868,
        0.0,
        0.0,
        0.8621981739997749,
        -1.4046991227844168e-07,
        0.0,
        0.0039871931076049805,
        0.039127301424741745,
        -1.0480351448059082,
        1.0
      ],
      "name": "Cube.017"
    },
    {
      "mesh": 24,
      "name": "Cube.017_Plastic Base 01_0"
    },
    {
      "children": [
        53
      ],
      "matrix": [
        1.0585023164749146,
        0.0,
        0.0,
        0.0,
        0.0,
        0.19302575290203094,
        0.0,
        0.0,
        0.0,
        0.0,
        0.22387631237506866,
        0.0,
        -0.6089382171630859,
        0.4961676597595215,
        0.41328665614128113,
        1.0
      ],
      "name": "Cube.018"
    },
    {
      "mesh": 25,
      "name": "Cube.018__0"
    },
    {
      "children": [
        55
      ],
      "matrix": [
        -0.448492169380188,
        -0.0,
        -0.0,
        -0.0,
        -0.0,
        -1.5543053150176986,
        -6.794084314087921e-08,
        -0.0,
        -0.0,
        6.794084314087921e-08,
        -1.5543053150176986,
        -0.0,
        150.07931518554688,
        -112.09867095947266,
        447.5393371582031,
        1.0
      ],
      "name": "Plane.004"
    },
    {
      "mesh": 26,
      "name": "Plane.004_Material.006_0"
    },
    {
      "children": [
        57,
        58,
        60
      ],
      "matrix": [
        100.0,
        0.0,
        0.0,
        0.0,
        0.0,
        99.9999999999999,
        4.371138828673792e-06,
        0.0,
        0.0,
        -4.371138828673792e-06,
        99.9999999999999,
        0.0,
        -101.21612548828125,
        2.1583969593048096,
        441.03436279296875,
        1.0
      ],
      "name": "Plane.011"
    },
    {
      "mesh": 27,
      "name": "Plane.011_Plastic Base 01.001_0"
    },
    {
      "children": [
        59
      ],
      "matrix": [
        1.0,
        0.0,
        0.0,
        0.0,
        0.0,
        1.0,
        0.0,
        0.0,
        0.0,
        0.0,
        1.0,
        0.0,
        -0.00012874603271484375,
        -0.5875781178474426,
        0.0005769729614257813,
        1.0
      ],
      "name": "Circle.012"
    },
    {
      "mesh": 28,
      "name": "Circle.012_Plastic Base 01.001_0"
    },
    {
      "children": [
        61,
        62
      ],
      "matrix": [
        0.18235743045806885,
        0.0,
        0.0,
        0.0,
        0.0,
        -1.6292067939183141e-07,
        -0.9999999999999868,
        0.0,
        0.0,
        0.8621981739997749,
        -1.4046991227844168e-07,
        0.0,
        0.0039871931076049805,
        0.039127301424741745,
        -1.0480351448059082,
        1.0
      ],
      "name": "Cube.011"
    },
    {
      "mesh": 29,
      "name": "Cube.011_Plastic Base 01_0"
    },
    {
      "children": [
        63
      ],
      "matrix": [
        1.0585023164749146,
        0.0,
        0.0,
        0.0,
        0.0,
        0.19302575290203094,
        0.0,
        0.0,
        0.0,
        0.0,
        0.22387631237506866,
        0.0,
        -0.6089391708374023,
        0.4961678981781006,
        0.41328665614128113,
        1.0
      ],
      "name": "Cube.012"
    },
    {
      "mesh": 30,
      "name": "Cube.012__0"
    }
  ],
  "scene": 0,
  "scenes": [
    {
      "name": "Sketchfab_Scene",
      "nodes": [
        0
      ]
    }
  ]
}
