{
  "accessors": [
    {
      "bufferView": 2,
      "componentType": 5126,
      "count": 135,
      "max": [
        -8.619696617126465,
        13.050052642822266,
        -0.11059708148241043
      ],
      "min": [
        -8.694340705871582,
        12.007542610168457,
        -0.35447728633880615
      ],
      "type": "VEC3"
    },
    {
      "bufferView": 2,
      "byteOffset": 1620,
      "componentType": 5126,
      "count": 135,
      "max": [
        -0.867401123046875,
        0.003609118051826954,
        -0.12230964004993439
      ],
      "min": [
        -0.9924920797348022,
        -0.0035978916566818953,
        -0.4976096451282501
      ],
      "type": "VEC3"
    },
    {
      "bufferView": 3,
      "componentType": 5126,
      "count": 135,
      "max": [
        -0.07832099497318268,
        -0.7511625289916992,
        0.6368101239204407,
        1.0
      ],
      "min": [
        -0.3226703405380249,
        -0.77250736951828,
        0.5557317733764648,
        1.0
      ],
      "type": "VEC4"
    },
    {
      "bufferView": 1,
      "componentType": 5126,
      "count": 135,
      "max": [
        35.950260162353516,
        11.249113082885742
      ],
      "min": [
        34.9129753112793,
        10.222835540771484
      ],
      "type": "VEC2"
    },
    {
      "bufferView": 0,
      "componentType": 5125,
      "count": 504,
      "type": "SCALAR"
    },
    {
      "bufferView": 2,
      "byteOffset": 3240,
      "componentType": 5126,
      "count": 192,
      "max": [
        -8.607653617858887,
        13.075236320495605,
        -0.085296630859375
      ],
      "min": [
        -8.6973876953125,
        11.982406616210938,
        -0.3760445713996887
      ],
      "type": "VEC3"
    },
    {
      "bufferView": 2,
      "byteOffset": 5544,
      "componentType": 5126,
      "count": 192,
      "max": [
        -0.8850562572479248,
        0.037724558264017105,
        -0.17919160425662994
      ],
      "min": [
        -0.9832448363304138,
        -0.03775173798203468,
        -0.46548402309417725
      ],
      "type": "VEC3"
    },
    {
      "bufferView": 1,
      "byteOffset": 1080,
      "componentType": 5126,
      "count": 192,
      "max": [
        0.5775624513626099,
        0.9867713451385498
      ],
      "min": [
        0.014984220266342163,
        0.8124659657478333
      ],
      "type": "VEC2"
    },
    {
      "bufferView": 0,
      "byteOffset": 2016,
      "componentType": 5125,
      "count": 576,
      "type": "SCALAR"
    },
    {
      "bufferView": 2,
      "byteOffset": 7848,
      "componentType": 5126,
      "count": 195,
      "max": [
        0.4705674648284912,
        1.4756174087524414,
        0.0917518138885498
      ],
      "min": [
        -0.4705679416656494,
        0.5344820022583008,
        0.06425070762634277
      ],
      "type": "VEC3"
    },
    {
      "bufferView": 2,
      "byteOffset": 10188,
      "componentType": 5126,
      "count": 195,
      "max": [
        0.9895403385162354,
        0.9895422458648682,
        1.0
      ],
      "min": [
        -0.9895402789115906,
        -0.9895392060279846,
        0.1442420929670334
      ],
      "type": "VEC3"
    },
    {
      "bufferView": 1,
      "byteOffset": 2616,
      "componentType": 5126,
      "count": 195,
      "max": [
        0.4143331050872803,
        0.9681780338287354
      ],
      "min": [
        0.013652145862579346,
        0.830127477645874
      ],
      "type": "VEC2"
    },
    {
      "bufferView": 0,
      "byteOffset": 4320,
      "componentType": 5125,
      "count": 576,
      "type": "SCALAR"
    },
    {
      "bufferView": 2,
      "byteOffset": 12528,
      "componentType": 5126,
      "count": 691,
      "max": [
        8.687736511230469,
        25.04140853881836,
        -0.19199419021606445
      ],
      "min": [
        6.766199111938477,
        20.588985443115234,
        -0.4900984764099121
      ],
      "type": "VEC3"
    },
    {
      "bufferView": 2,
      "byteOffset": 20820,
      "componentType": 5126,
      "count": 691,
      "max": [
        0.9999962449073792,
        0.9999874830245972,
        0.8465165495872498
      ],
      "min": [
        -0.9999961853027344,
        -0.9999874830245972,
        -0.9776875972747803
      ],
      "type": "VEC3"
    },
    {
      "bufferView": 3,
      "byteOffset": 2160,
      "componentType": 5126,
      "count": 691,
      "max": [
        0.9999985694885254,
        1.0,
        0.9244019389152527,
        1.0
      ],
      "min": [
        -0.9999994039535522,
        -1.0,
        -0.9248012900352478,
        1.0
      ],
      "type": "VEC4"
    },
    {
      "bufferView": 1,
      "byteOffset": 4176,
      "componentType": 5126,
      "count": 691,
      "max": [
        39.569637298583984,
        12.84232234954834
      ],
      "min": [
        34.236419677734375,
        11.180927276611328
      ],
      "type": "VEC2"
    },
    {
      "bufferView": 0,
      "byteOffset": 6624,
      "componentType": 5125,
      "count": 2112,
      "type": "SCALAR"
    },
    {
      "bufferView": 2,
      "byteOffset": 29112,
      "componentType": 5126,
      "count": 104,
      "max": [
        4.053593635559082,
        0.14623641967773438,
        -0.23632550239562988
      ],
      "min": [
        -4.053330421447754,
        0.07539081573486328,
        -0.3840658664703369
      ],
      "type": "VEC3"
    },
    {
      "bufferView": 2,
      "byteOffset": 30360,
      "componentType": 5126,
      "count": 104,
      "max": [
        0.0,
        -0.9016890525817871,
        -0.43238455057144165
      ],
      "min": [
        0.0,
        -0.9016892910003662,
        -0.43238502740859985
      ],
      "type": "VEC3"
    },
    {
      "bufferView": 3,
      "byteOffset": 13216,
      "componentType": 5126,
      "count": 104,
      "max": [
        0.00012268839054740965,
        0.43238505721092224,
        -0.9016883373260498,
        1.0
      ],
      "min": [
        -0.0013448746176436543,
        0.4323842227458954,
        -0.901689350605011,
        1.0
      ],
      "type": "VEC4"
    },
    {
      "bufferView": 1,
      "byteOffset": 9704,
      "componentType": 5126,
      "count": 104,
      "max": [
        0.9602912068367004,
        0.9612727761268616
      ],
      "min": [
        0.03967324271798134,
        0.03701508045196533
      ],
      "type": "VEC2"
    },
    {
      "bufferView": 1,
      "byteOffset": 10536,
      "componentType": 5126,
      "count": 104,
      "max": [
        0.9602912068367004,
        0.9612727761268616
      ],
      "min": [
        0.03967324271798134,
        0.03701508045196533
      ],
      "type": "VEC2"
    },
    {
      "bufferView": 1,
      "byteOffset": 11368,
      "componentType": 5126,
      "count": 104,
      "max": [
        0.9602912068367004,
        0.9612727761268616
      ],
      "min": [
        0.03967324271798134,
        0.03701508045196533
      ],
      "type": "VEC2"
    },
    {
      "bufferView": 0,
      "byteOffset": 15072,
      "componentType": 5125,
      "count": 156,
      "type": "SCALAR"
    },
    {
      "bufferView": 2,
      "byteOffset": 31608,
      "componentType": 5126,
      "count": 260,
      "max": [
        0.6216803193092346,
        1.6267385482788086,
        0.10925218462944031
      ],
      "min": [
        -0.6216803193092346,
        0.3833780884742737,
        0.09888458997011185
      ],
      "type": "VEC3"
    },
    {
      "bufferView": 2,
      "byteOffset": 34728,
      "componentType": 5126,
      "count": 260,
      "max": [
        0.48154616355895996,
        0.4815453588962555,
        1.0
      ],
      "min": [
        -0.4815461337566376,
        -0.48154759407043457,
        0.8764199614524841
      ],
      "type": "VEC3"
    },
    {
      "bufferView": 1,
      "byteOffset": 12200,
      "componentType": 5126,
      "count": 260,
      "max": [
        0.9998391270637512,
        0.9999997615814209
      ],
      "min": [
        0.0001607835292816162,
        0.01397162675857544
      ],
      "type": "VEC2"
    },
    {
      "bufferView": 1,
      "byteOffset": 14280,
      "componentType": 5126,
      "count": 260,
      "max": [
        0.9998391270637512,
        0.9999997615814209
      ],
      "min": [
        0.0001607835292816162,
        0.01397162675857544
      ],
      "type": "VEC2"
    },
    {
      "bufferView": 0,
      "byteOffset": 15696,
      "componentType": 5125,
      "count": 768,
      "type": "SCALAR"
    },
    {
      "bufferView": 2,
      "byteOffset": 37848,
      "componentType": 5126,
      "count": 865,
      "max": [
        -7.029125213623047,
        25.05044937133789,
        -0.11152982711791992
      ],
      "min": [
        -7.454410552978516,
        23.760787963867188,
        -0.536914587020874
      ],
      "type": "VEC3"
    },
    {
      "bufferView": 2,
      "byteOffset": 48228,
      "componentType": 5126,
      "count": 865,
      "max": [
        0.9999451637268066,
        0.9739928245544434,
        0.9999988079071045
      ],
      "min": [
        -0.999664843082428,
        -0.1134185716509819,
        -0.9999998211860657
      ],
      "type": "VEC3"
    },
    {
      "bufferView": 1,
      "byteOffset": 16360,
      "componentType": 5126,
      "count": 865,
      "max": [
        0.9880344867706299,
        0.9852603673934937
      ],
      "min": [
        0.013375853188335896,
        0.11331269145011902
      ],
      "type": "VEC2"
    },
    {
      "bufferView": 0,
      "byteOffset": 18768,
      "componentType": 5125,
      "count": 3804,
      "type": "SCALAR"
    },
    {
      "bufferView": 2,
      "byteOffset": 58608,
      "componentType": 5126,
      "count": 628,
      "max": [
        -7.051103591918945,
        24.911388397216797,
        -0.1433330774307251
      ],
      "min": [
        -7.439723014831543,
        23.760780334472656,
        -0.5029127597808838
      ],
      "type": "VEC3"
    },
    {
      "bufferView": 2,
      "byteOffset": 66144,
      "componentType": 5126,
      "count": 628,
      "max": [
        1.0,
        1.0,
        0.9999273419380188
      ],
      "min": [
        -1.0,
        -1.0,
        -0.9999598860740662
      ],
      "type": "VEC3"
    },
    {
      "bufferView": 1,
      "byteOffset": 23280,
      "componentType": 5126,
      "count": 628,
      "max": [
        0.7146887183189392,
        0.49584245681762695
      ],
      "min": [
        0.029261406511068344,
        0.001710912911221385
      ],
      "type": "VEC2"
    },
    {
      "bufferView": 0,
      "byteOffset": 33984,
      "componentType": 5125,
      "count": 2220,
      "type": "SCALAR"
    },
    {
      "bufferView": 2,
      "byteOffset": 73680,
      "componentType": 5126,
      "count": 9024,
      "max": [
        8.703156471252441,
        25.056995391845703,
        0.09804773330688477
      ],
      "min": [
        -8.702861785888672,
        -9.5367431640625e-07,
        -0.6522684097290039
      ],
      "type": "VEC3"
    },
    {
      "bufferView": 2,
      "byteOffset": 181968,
      "componentType": 5126,
      "count": 9024,
      "max": [
        1.0,
        1.0,
        0.9642423391342163
      ],
      "min": [
        -1.0,
        -1.0,
        -1.0
      ],
      "type": "VEC3"
    },
    {
      "bufferView": 3,
      "byteOffset": 14880,
      "componentType": 5126,
      "count": 9024,
      "max": [
        1.0,
        0.899617612361908,
        0.9999961256980896,
        1.0
      ],
      "min": [
        -1.0,
        -0.8497841358184814,
        -0.9999906420707703,
        1.0
      ],
      "type": "VEC4"
    },
    {
      "bufferView": 1,
      "byteOffset": 28304,
      "componentType": 5126,
      "count": 9024,
      "max": [
        58.7581787109375,
        43.19175720214844
      ],
      "min": [
        0.30770111083984375,
        0.34743690490722656
      ],
      "type": "VEC2"
    },
    {
      "bufferView": 0,
      "byteOffset": 42864,
      "componentType": 5125,
      "count": 42165,
      "type": "SCALAR"
    },
    {
      "bufferView": 2,
      "byteOffset": 290256,
      "componentType": 5126,
      "count": 505,
      "max": [
        8.589539527893066,
        24.94739532470703,
        0.1067514419555664
      ],
      "min": [
        -8.589680671691895,
        0.11286258697509766,
        0.05675029754638672
      ],
      "type": "VEC3"
    },
    {
      "bufferView": 2,
      "byteOffset": 296316,
      "componentType": 5126,
      "count": 505,
      "max": [
        1.0,
        1.0,
        0.716953694820404
      ],
      "min": [
        -1.0,
        -1.0,
        -0.7193349003791809
      ],
      "type": "VEC3"
    },
    {
      "bufferView": 1,
      "byteOffset": 100496,
      "componentType": 5126,
      "count": 505,
      "max": [
        30.520774841308594,
        5.365820407867432
      ],
      "min": [
        28.280799865722656,
        2.1287834644317627
      ],
      "type": "VEC2"
    },
    {
      "bufferView": 0,
      "byteOffset": 211524,
      "componentType": 5125,
      "count": 1818,
      "type": "SCALAR"
    },
    {
      "bufferView": 2,
      "byteOffset": 302376,
      "componentType": 5126,
      "count": 177,
      "max": [
        1.4221930503845215,
        14.693323135375977,
        -0.65730881690979
      ],
      "min": [
        -1.422444224357605,
        11.1969575881958,
        -0.6573089361190796
      ],
      "type": "VEC3"
    },
    {
      "bufferView": 2,
      "byteOffset": 304500,
      "componentType": 5126,
      "count": 177,
      "max": [
        2.1391854261310073e-06,
        1.1065027365475544e-06,
        -1.0
      ],
      "min": [
        -3.0458093078777893e-06,
        -1.226981908075686e-06,
        -1.0
      ],
      "type": "VEC3"
    },
    {
      "bufferView": 1,
      "byteOffset": 104536,
      "componentType": 5126,
      "count": 177,
      "max": [
        7.930269718170166,
        8.812674522399902
      ],
      "min": [
        2.359618902206421,
        1.8384038209915161
      ],
      "type": "VEC2"
    },
    {
      "bufferView": 0,
      "byteOffset": 218796,
      "componentType": 5125,
      "count": 525,
      "type": "SCALAR"
    },
    {
      "bufferView": 2,
      "byteOffset": 306624,
      "componentType": 5126,
      "count": 583,
      "max": [
        8.574539184570313,
        24.93240737915039,
        0.10726428031921387
      ],
      "min": [
        -8.574681282043457,
        0.12792730331420898,
        0.07175040245056152
      ],
      "type": "VEC3"
    },
    {
      "bufferView": 2,
      "byteOffset": 313620,
      "componentType": 5126,
      "count": 583,
      "max": [
        1.0,
        1.0,
        1.0
      ],
      "min": [
        -1.0,
        -1.0,
        -1.3758509567196597e-06
      ],
      "type": "VEC3"
    },
    {
      "bufferView": 1,
      "byteOffset": 105952,
      "componentType": 5126,
      "count": 583,
      "max": [
        30.49559783935547,
        5.321626663208008
      ],
      "min": [
        28.31732940673828,
        2.16976261138916
      ],
      "type": "VEC2"
    },
    {
      "bufferView": 0,
      "byteOffset": 220896,
      "componentType": 5125,
      "count": 2007,
      "type": "SCALAR"
    },
    {
      "bufferView": 2,
      "byteOffset": 320616,
      "componentType": 5126,
      "count": 1312,
      "max": [
        8.628220558166504,
        25.019550323486328,
        0.0477294921875
      ],
      "min": [
        -8.628155708312988,
        0.06822389364242554,
        -0.6530698537826538
      ],
      "type": "VEC3"
    },
    {
      "bufferView": 2,
      "byteOffset": 336360,
      "componentType": 5126,
      "count": 1312,
      "max": [
        1.0,
        1.0,
        1.0
      ],
      "min": [
        -1.0,
        -1.0,
        -1.0
      ],
      "type": "VEC3"
    },
    {
      "bufferView": 1,
      "byteOffset": 110616,
      "componentType": 5126,
      "count": 1312,
      "max": [
        30.030305862426758,
        4.991246223449707
      ],
      "min": [
        28.560470581054688,
        2.785051107406616
      ],
      "type": "VEC2"
    },
    {
      "bufferView": 0,
      "byteOffset": 228924,
      "componentType": 5125,
      "count": 5130,
      "type": "SCALAR"
    },
    {
      "bufferView": 2,
      "byteOffset": 352104,
      "componentType": 5126,
      "count": 250,
      "max": [
        7.772220611572266,
        25.046234130859375,
        -0.18706583976745605
      ],
      "min": [
        6.7612152099609375,
        24.735858917236328,
        -0.49501854181289673
      ],
      "type": "VEC3"
    },
    {
      "bufferView": 2,
      "byteOffset": 355104,
      "componentType": 5126,
      "count": 250,
      "max": [
        0.9999818205833435,
        0.9695239067077637,
        0.8442705869674683
      ],
      "min": [
        -0.9999818205833435,
        -0.5239141583442688,
        -0.9787427186965942
      ],
      "type": "VEC3"
    },
    {
      "bufferView": 1,
      "byteOffset": 121112,
      "componentType": 5126,
      "count": 250,
      "max": [
        0.677253007888794,
        0.8085962533950806
      ],
      "min": [
        0.21379093825817108,
        0.013368077576160431
      ],
      "type": "VEC2"
    },
    {
      "bufferView": 1,
      "byteOffset": 123112,
      "componentType": 5126,
      "count": 250,
      "max": [
        0.677253007888794,
        0.8085962533950806
      ],
      "min": [
        0.21379093825817108,
        0.013368077576160431
      ],
      "type": "VEC2"
    },
    {
      "bufferView": 0,
      "byteOffset": 249444,
      "componentType": 5125,
      "count": 744,
      "type": "SCALAR"
    },
    {
      "bufferView": 2,
      "byteOffset": 358104,
      "componentType": 5126,
      "count": 788,
      "max": [
        8.665844917297363,
        25.018367767333984,
        -0.19123417139053345
      ],
      "min": [
        6.733157157897949,
        20.560726165771484,
        -0.4969165325164795
      ],
      "type": "VEC3"
    },
    {
      "bufferView": 2,
      "byteOffset": 367560,
      "componentType": 5126,
      "count": 788,
      "max": [
        0.9987140893936157,
        1.0,
        0.855786144733429
      ],
      "min": [
        -0.9986955523490906,
        -0.9998239874839783,
        -0.8446333408355713
      ],
      "type": "VEC3"
    },
    {
      "bufferView": 1,
      "byteOffset": 125112,
      "componentType": 5126,
      "count": 788,
      "max": [
        0.9972720742225647,
        0.989983081817627
      ],
      "min": [
        0.010420918464660645,
        0.0057710036635398865
      ],
      "type": "VEC2"
    },
    {
      "bufferView": 1,
      "byteOffset": 131416,
      "componentType": 5126,
      "count": 788,
      "max": [
        0.9972720742225647,
        0.989983081817627
      ],
      "min": [
        0.010420918464660645,
        0.0057710036635398865
      ],
      "type": "VEC2"
    },
    {
      "bufferView": 0,
      "byteOffset": 252420,
      "componentType": 5125,
      "count": 1860,
      "type": "SCALAR"
    },
    {
      "bufferView": 2,
      "byteOffset": 377016,
      "componentType": 5126,
      "count": 36,
      "max": [
        8.646073341369629,
        22.034770965576172,
        -0.27387383580207825
      ],
      "min": [
        8.521913528442383,
        21.902355194091797,
        -0.4707251191139221
      ],
      "type": "VEC3"
    },
    {
      "bufferView": 2,
      "byteOffset": 377448,
      "componentType": 5126,
      "count": 36,
      "max": [
        0.9908570051193237,
        0.09132945537567139,
        -0.13357041776180267
      ],
      "min": [
        0.5730875730514526,
        0.013063766993582249,
        -0.8189020752906799
      ],
      "type": "VEC3"
    },
    {
      "bufferView": 1,
      "byteOffset": 137720,
      "componentType": 5126,
      "count": 36,
      "max": [
        0.5822689533233643,
        0.8062728047370911
      ],
      "min": [
        0.41484495997428894,
        0.33530518412590027
      ],
      "type": "VEC2"
    },
    {
      "bufferView": 1,
      "byteOffset": 138008,
      "componentType": 5126,
      "count": 36,
      "max": [
        0.5822689533233643,
        0.8062728047370911
      ],
      "min": [
        0.41484495997428894,
        0.33530518412590027
      ],
      "type": "VEC2"
    },
    {
      "bufferView": 0,
      "byteOffset": 259860,
      "componentType": 5125,
      "count": 102,
      "type": "SCALAR"
    },
    {
      "bufferView": 2,
      "byteOffset": 377880,
      "componentType": 5126,
      "count": 224,
      "max": [
        8.692480087280273,
        21.59500503540039,
        -0.24063348770141602
      ],
      "min": [
        8.467611312866211,
        20.583999633789063,
        -0.49464988708496094
      ],
      "type": "VEC3"
    },
    {
      "bufferView": 2,
      "byteOffset": 380568,
      "componentType": 5126,
      "count": 224,
      "max": [
        0.9715756773948669,
        0.999940812587738,
        0.8429607152938843
      ],
      "min": [
        -0.5201085209846497,
        -0.9999407529830933,
        -0.9769077897071838
      ],
      "type": "VEC3"
    },
    {
      "bufferView": 1,
      "byteOffset": 138296,
      "componentType": 5126,
      "count": 224,
      "max": [
        0.8040124177932739,
        0.8057218790054321
      ],
      "min": [
        0.41100531816482544,
        0.20561844110488892
      ],
      "type": "VEC2"
    },
    {
      "bufferView": 1,
      "byteOffset": 140088,
      "componentType": 5126,
      "count": 224,
      "max": [
        0.8040124177932739,
        0.8057218790054321
      ],
      "min": [
        0.41100531816482544,
        0.20561844110488892
      ],
      "type": "VEC2"
    },
    {
      "bufferView": 0,
      "byteOffset": 260268,
      "componentType": 5125,
      "count": 684,
      "type": "SCALAR"
    },
    {
      "bufferView": 2,
      "byteOffset": 383256,
      "componentType": 5126,
      "count": 220,
      "max": [
        8.692481994628906,
        22.938629150390625,
        -0.2407550811767578
      ],
      "min": [
        8.467611312866211,
        21.927623748779297,
        -0.49464988708496094
      ],
      "type": "VEC3"
    },
    {
      "bufferView": 2,
      "byteOffset": 385896,
      "componentType": 5126,
      "count": 220,
      "max": [
        0.9715695977210999,
        0.9999407529830933,
        0.8418946862220764
      ],
      "min": [
        -0.5201074481010437,
        -0.9999403953552246,
        -0.976906955242157
      ],
      "type": "VEC3"
    },
    {
      "bufferView": 1,
      "byteOffset": 141880,
      "componentType": 5126,
      "count": 220,
      "max": [
        0.8582262992858887,
        0.8073578476905823
      ],
      "min": [
        0.3109206259250641,
        0.14317210018634796
      ],
      "type": "VEC2"
    },
    {
      "bufferView": 1,
      "byteOffset": 143640,
      "componentType": 5126,
      "count": 220,
      "max": [
        0.8582262992858887,
        0.8073578476905823
      ],
      "min": [
        0.3109206259250641,
        0.14317210018634796
      ],
      "type": "VEC2"
    },
    {
      "bufferView": 0,
      "byteOffset": 263004,
      "componentType": 5125,
      "count": 684,
      "type": "SCALAR"
    },
    {
      "bufferView": 2,
      "byteOffset": 388536,
      "componentType": 5126,
      "count": 168,
      "max": [
        8.694387435913086,
        22.940624237060547,
        -0.2390727996826172
      ],
      "min": [
        8.466572761535645,
        21.92563247680664,
        -0.4964790344238281
      ],
      "type": "VEC3"
    },
    {
      "bufferView": 2,
      "byteOffset": 390552,
      "componentType": 5126,
      "count": 168,
      "max": [
        0.9707225561141968,
        0.999913215637207,
        0.840615451335907
      ],
      "min": [
        -0.5180749297142029,
        -0.9999128580093384,
        -0.9776700139045715
      ],
      "type": "VEC3"
    },
    {
      "bufferView": 1,
      "byteOffset": 145400,
      "componentType": 5126,
      "count": 168,
      "max": [
        0.5348753929138184,
        0.5650863647460938
      ],
      "min": [
        0.4742894768714905,
        0.24602296948432922
      ],
      "type": "VEC2"
    },
    {
      "bufferView": 1,
      "byteOffset": 146744,
      "componentType": 5126,
      "count": 168,
      "max": [
        0.5348753929138184,
        0.5650863647460938
      ],
      "min": [
        0.4742894768714905,
        0.24602296948432922
      ],
      "type": "VEC2"
    },
    {
      "bufferView": 0,
      "byteOffset": 265740,
      "componentType": 5125,
      "count": 504,
      "type": "SCALAR"
    },
    {
      "bufferView": 2,
      "byteOffset": 392568,
      "componentType": 5126,
      "count": 1215,
      "max": [
        -7.029293060302734,
        24.920955657958984,
        -0.14144515991210938
      ],
      "min": [
        -7.4540205001831055,
        23.705970764160156,
        -0.3994021415710449
      ],
      "type": "VEC3"
    },
    {
      "bufferView": 2,
      "byteOffset": 407148,
      "componentType": 5126,
      "count": 1215,
      "max": [
        0.9999979734420776,
        0.9910902976989746,
        1.0
      ],
      "min": [
        -0.9999978542327881,
        -0.9911133050918579,
        -1.0
      ],
      "type": "VEC3"
    },
    {
      "bufferView": 1,
      "byteOffset": 148088,
      "componentType": 5126,
      "count": 1215,
      "max": [
        0.9888231754302979,
        0.9214136004447937
      ],
      "min": [
        0.6389909982681274,
        0.05592457950115204
      ],
      "type": "VEC2"
    },
    {
      "bufferView": 0,
      "byteOffset": 267756,
      "componentType": 5125,
      "count": 5820,
      "type": "SCALAR"
    },
    {
      "bufferView": 2,
      "byteOffset": 421728,
      "componentType": 5126,
      "count": 65,
      "max": [
        7.575652122497559,
        24.201648712158203,
        -0.6520075798034668
      ],
      "min": [
        6.956793785095215,
        23.58279037475586,
        -0.6520085334777832
      ],
      "type": "VEC3"
    },
    {
      "bufferView": 2,
      "byteOffset": 422508,
      "componentType": 5126,
      "count": 65,
      "max": [
        6.948561804165365e-06,
        1.5047865417727735e-05,
        -1.0
      ],
      "min": [
        -6.940782895981101e-06,
        -1.386970416206168e-05,
        -1.0
      ],
      "type": "VEC3"
    },
    {
      "bufferView": 1,
      "byteOffset": 157808,
      "componentType": 5126,
      "count": 65,
      "max": [
        28.627010345458984,
        2.659487247467041
      ],
      "min": [
        28.54798126220703,
        2.5804593563079834
      ],
      "type": "VEC2"
    },
    {
      "bufferView": 0,
      "byteOffset": 291036,
      "componentType": 5125,
      "count": 192,
      "type": "SCALAR"
    },
    {
      "bufferView": 2,
      "byteOffset": 423288,
      "componentType": 5126,
      "count": 289,
      "max": [
        7.336666107177734,
        23.962154388427734,
        -0.584876537322998
      ],
      "min": [
        7.196471214294434,
        23.821949005126953,
        -0.6019396781921387
      ],
      "type": "VEC3"
    },
    {
      "bufferView": 2,
      "byteOffset": 426756,
      "componentType": 5126,
      "count": 289,
      "max": [
        0.5041974186897278,
        0.504211962223053,
        -0.8635576963424683
      ],
      "min": [
        -0.5042130351066589,
        -0.5041924118995667,
        -1.0
      ],
      "type": "VEC3"
    },
    {
      "bufferView": 1,
      "byteOffset": 158328,
      "componentType": 5126,
      "count": 289,
      "max": [
        0.9913662075996399,
        0.9959830045700073
      ],
      "min": [
        0.011443228460848331,
        0.020969629287719727
      ],
      "type": "VEC2"
    },
    {
      "bufferView": 0,
      "byteOffset": 291804,
      "componentType": 5125,
      "count": 1632,
      "type": "SCALAR"
    },
    {
      "bufferView": 2,
      "byteOffset": 430224,
      "componentType": 5126,
      "count": 198,
      "max": [
        7.458315849304199,
        24.083770751953125,
        -0.5769400596618652
      ],
      "min": [
        7.074812889099121,
        23.700267791748047,
        -0.6052718758583069
      ],
      "type": "VEC3"
    },
    {
      "bufferView": 2,
      "byteOffset": 432600,
      "componentType": 5126,
      "count": 198,
      "max": [
        0.9590790867805481,
        0.9590713381767273,
        -0.28291937708854675
      ],
      "min": [
        -0.9590502977371216,
        -0.9590286612510681,
        -0.9999997615814209
      ],
      "type": "VEC3"
    },
    {
      "bufferView": 1,
      "byteOffset": 160640,
      "componentType": 5126,
      "count": 198,
      "max": [
        1.0,
        1.0
      ],
      "min": [
        0.0,
        0.0
      ],
      "type": "VEC2"
    },
    {
      "bufferView": 0,
      "byteOffset": 298332,
      "componentType": 5125,
      "count": 960,
      "type": "SCALAR"
    },
    {
      "bufferView": 2,
      "byteOffset": 434976,
      "componentType": 5126,
      "count": 358,
      "max": [
        7.575981140136719,
        24.201644897460938,
        -0.5789322853088379
      ],
      "min": [
        6.956794738769531,
        23.58260726928711,
        -0.6520094871520996
      ],
      "type": "VEC3"
    },
    {
      "bufferView": 2,
      "byteOffset": 439272,
      "componentType": 5126,
      "count": 358,
      "max": [
        0.9999569654464722,
        0.9999567866325378,
        0.026366017758846283
      ],
      "min": [
        -0.9999569654464722,
        -0.9999574422836304,
        -1.0
      ],
      "type": "VEC3"
    },
    {
      "bufferView": 1,
      "byteOffset": 162224,
      "componentType": 5126,
      "count": 358,
      "max": [
        0.9840443134307861,
        0.9898052215576172
      ],
      "min": [
        0.8677533268928528,
        0.5354902148246765
      ],
      "type": "VEC2"
    },
    {
      "bufferView": 0,
      "byteOffset": 302172,
      "componentType": 5125,
      "count": 1056,
      "type": "SCALAR"
    },
    {
      "bufferView": 2,
      "byteOffset": 443568,
      "componentType": 5126,
      "count": 40,
      "max": [
        7.85099983215332,
        22.97153091430664,
        0.10726404935121536
      ],
      "min": [
        -7.851003646850586,
        2.085390090942383,
        0.10726352035999298
      ],
      "type": "VEC3"
    },
    {
      "bufferView": 2,
      "byteOffset": 444048,
      "componentType": 5126,
      "count": 40,
      "max": [
        1.41923337650951e-05,
        1.1066565093642566e-05,
        1.0
      ],
      "min": [
        -1.4242238648876082e-05,
        -6.388508154486772e-06,
        1.0
      ],
      "type": "VEC3"
    },
    {
      "bufferView": 1,
      "byteOffset": 165088,
      "componentType": 5126,
      "count": 40,
      "max": [
        32.489742279052734,
        4.6776509284973145
      ],
      "min": [
        30.687931060791016,
        2.280975103378296
      ],
      "type": "VEC2"
    },
    {
      "bufferView": 0,
      "byteOffset": 306396,
      "componentType": 5125,
      "count": 120,
      "type": "SCALAR"
    },
    {
      "bufferView": 2,
      "byteOffset": 444528,
      "componentType": 5126,
      "count": 4,
      "max": [
        7.758844375610352,
        22.871170043945313,
        0.10726404190063477
      ],
      "min": [
        -7.758845329284668,
        2.185609817504883,
        0.10726404190063477
      ],
      "type": "VEC3"
    },
    {
      "bufferView": 2,
      "byteOffset": 444576,
      "componentType": 5126,
      "count": 4,
      "max": [
        0.0,
        0.0,
        1.0
      ],
      "min": [
        0.0,
        0.0,
        1.0
      ],
      "type": "VEC3"
    },
    {
      "bufferView": 1,
      "byteOffset": 165408,
      "componentType": 5126,
      "count": 4,
      "max": [
        0.995715320110321,
        0.9957096576690674
      ],
      "min": [
        0.0042848140001297,
        0.004290342330932617
      ],
      "type": "VEC2"
    },
    {
      "bufferView": 0,
      "byteOffset": 306876,
      "componentType": 5125,
      "count": 6,
      "type": "SCALAR"
    },
    {
      "bufferView": 2,
      "byteOffset": 444624,
      "componentType": 5126,
      "count": 96,
      "max": [
        0.11498265713453293,
        24.069992065429688,
        0.10435938090085983
      ],
      "min": [
        -0.11498266458511353,
        23.83987808227539,
        0.10435861349105835
      ],
      "type": "VEC3"
    },
    {
      "bufferView": 2,
      "byteOffset": 445776,
      "componentType": 5126,
      "count": 96,
      "max": [
        2.5967132387449965e-05,
        2.3041435269988142e-05,
        1.0
      ],
      "min": [
        -2.6135281586903147e-05,
        -2.5508597900625318e-05,
        1.0
      ],
      "type": "VEC3"
    },
    {
      "bufferView": 1,
      "byteOffset": 165440,
      "componentType": 5126,
      "count": 96,
      "max": [
        0.9900524616241455,
        0.9926840662956238
      ],
      "min": [
        0.9042497873306274,
        0.9068253040313721
      ],
      "type": "VEC2"
    },
    {
      "bufferView": 0,
      "byteOffset": 306900,
      "componentType": 5125,
      "count": 96,
      "type": "SCALAR"
    },
    {
      "bufferView": 2,
      "byteOffset": 446928,
      "componentType": 5126,
      "count": 321,
      "max": [
        0.05550595372915268,
        24.010345458984375,
        0.0882234275341034
      ],
      "min": [
        -0.05527809262275696,
        23.8995304107666,
        0.07509367167949677
      ],
      "type": "VEC3"
    },
    {
      "bufferView": 2,
      "byteOffset": 450780,
      "componentType": 5126,
      "count": 321,
      "max": [
        0.4015626311302185,
        0.40158966183662415,
        1.0
      ],
      "min": [
        -0.40159401297569275,
        -0.401559054851532,
        0.9158152341842651
      ],
      "type": "VEC3"
    },
    {
      "bufferView": 1,
      "byteOffset": 166208,
      "componentType": 5126,
      "count": 321,
      "max": [
        1.000075101852417,
        0.9999416470527649
      ],
      "min": [
        -6.240879883989692e-05,
        4.9816706450656056e-05
      ],
      "type": "VEC2"
    },
    {
      "bufferView": 0,
      "byteOffset": 307284,
      "componentType": 5125,
      "count": 1632,
      "type": "SCALAR"
    },
    {
      "bufferView": 2,
      "byteOffset": 454632,
      "componentType": 5126,
      "count": 297,
      "max": [
        0.11518001556396484,
        24.070024490356445,
        0.10436058044433594
      ],
      "min": [
        -0.11493682861328125,
        23.839887619018555,
        0.06565284729003906
      ],
      "type": "VEC3"
    },
    {
      "bufferView": 2,
      "byteOffset": 458196,
      "componentType": 5126,
      "count": 297,
      "max": [
        0.9999995827674866,
        0.9999996423721313,
        0.9960039258003235
      ],
      "min": [
        -0.9999997615814209,
        -0.9999997019767761,
        -0.0013640813995152712
      ],
      "type": "VEC3"
    },
    {
      "bufferView": 1,
      "byteOffset": 168776,
      "componentType": 5126,
      "count": 297,
      "max": [
        1.0,
        0.9999998807907104
      ],
      "min": [
        0.0,
        -1.7881393432617188e-07
      ],
      "type": "VEC2"
    },
    {
      "bufferView": 0,
      "byteOffset": 313812,
      "componentType": 5125,
      "count": 1344,
      "type": "SCALAR"
    },
    {
      "bufferView": 2,
      "byteOffset": 461760,
      "componentType": 5126,
      "count": 224,
      "max": [
        0.11498265713453293,
        24.069992065429688,
        0.1043592095375061
      ],
      "min": [
        -0.11498266458511353,
        23.83987808227539,
        -0.0578923374414444
      ],
      "type": "VEC3"
    },
    {
      "bufferView": 2,
      "byteOffset": 464448,
      "componentType": 5126,
      "count": 224,
      "max": [
        0.9951890110969543,
        0.9951590895652771,
        1.0
      ],
      "min": [
        -0.9951890110969543,
        -0.9951633214950562,
        0.0
      ],
      "type": "VEC3"
    },
    {
      "bufferView": 1,
      "byteOffset": 171152,
      "componentType": 5126,
      "count": 224,
      "max": [
        0.9724861979484558,
        0.9914072751998901
      ],
      "min": [
        0.0019919550977647305,
        0.001800300320610404
      ],
      "type": "VEC2"
    },
    {
      "bufferView": 0,
      "byteOffset": 319188,
      "componentType": 5125,
      "count": 288,
      "type": "SCALAR"
    },
    {
      "bufferView": 2,
      "byteOffset": 467136,
      "componentType": 5126,
      "count": 520,
      "max": [
        0.5354302525520325,
        1.5404891967773438,
        0.10652613639831543
      ],
      "min": [
        -0.5354295372962952,
        0.46962928771972656,
        0.015249967575073242
      ],
      "type": "VEC3"
    },
    {
      "bufferView": 2,
      "byteOffset": 473376,
      "componentType": 5126,
      "count": 520,
      "max": [
        1.0,
        1.0,
        0.969973623752594
      ],
      "min": [
        -1.0,
        -1.0,
        -4.440892098500626e-16
      ],
      "type": "VEC3"
    },
    {
      "bufferView": 1,
      "byteOffset": 172944,
      "componentType": 5126,
      "count": 520,
      "max": [
        30.53583335876465,
        5.902276039123535
      ],
      "min": [
        26.103553771972656,
        5.51632022857666
      ],
      "type": "VEC2"
    },
    {
      "bufferView": 0,
      "byteOffset": 320340,
      "componentType": 5125,
      "count": 1536,
      "type": "SCALAR"
    },
    {
      "bufferView": 2,
      "byteOffset": 479616,
      "componentType": 5126,
      "count": 335,
      "max": [
        0.5409194231033325,
        3.8058290481567383,
        -0.65730881690979
      ],
      "min": [
        -0.5413612127304077,
        3.3575572967529297,
        -0.6573097705841064
      ],
      "type": "VEC3"
    },
    {
      "bufferView": 2,
      "byteOffset": 483636,
      "componentType": 5126,
      "count": 335,
      "max": [
        1.734907527861651e-05,
        1.0414193639007863e-05,
        -1.0
      ],
      "min": [
        -2.4659806513227522e-05,
        -3.632771040429361e-05,
        -1.0
      ],
      "type": "VEC3"
    },
    {
      "bufferView": 3,
      "byteOffset": 159264,
      "componentType": 5126,
      "count": 335,
      "max": [
        -1.0,
        0.00017740108887664974,
        2.4659808332216926e-05,
        1.0
      ],
      "min": [
        -1.0,
        -0.0001429321273462847,
        -1.734893703542184e-05,
        1.0
      ],
      "type": "VEC4"
    },
    {
      "bufferView": 1,
      "byteOffset": 177104,
      "componentType": 5126,
      "count": 335,
      "max": [
        2.203261375427246,
        0.8279762268066406
      ],
      "min": [
        0.09709037840366364,
        0.06471505761146545
      ],
      "type": "VEC2"
    },
    {
      "bufferView": 0,
      "byteOffset": 326484,
      "componentType": 5125,
      "count": 993,
      "type": "SCALAR"
    },
    {
      "bufferView": 2,
      "byteOffset": 487656,
      "componentType": 5126,
      "count": 697,
      "max": [
        0.46907204389572144,
        0.2675800323486328,
        -0.16110265254974365
      ],
      "min": [
        -0.4690721035003662,
        0.019959449768066406,
        -0.47569096088409424
      ],
      "type": "VEC3"
    },
    {
      "bufferView": 2,
      "byteOffset": 496020,
      "componentType": 5126,
      "count": 697,
      "max": [
        0.9999198317527771,
        1.0,
        1.0
      ],
      "min": [
        -0.9999198317527771,
        -0.9999995827674866,
        -1.0
      ],
      "type": "VEC3"
    },
    {
      "bufferView": 3,
      "byteOffset": 164624,
      "componentType": 5126,
      "count": 697,
      "max": [
        1.0,
        0.5497822761535645,
        0.9999197721481323,
        1.0
      ],
      "min": [
        -1.0,
        -0.5498895645141602,
        -0.9999198317527771,
        1.0
      ],
      "type": "VEC4"
    },
    {
      "bufferView": 1,
      "byteOffset": 179784,
      "componentType": 5126,
      "count": 697,
      "max": [
        3.674119710922241,
        0.8677656054496765
      ],
      "min": [
        0.07091660052537918,
        0.10241378843784332
      ],
      "type": "VEC2"
    },
    {
      "bufferView": 0,
      "byteOffset": 330456,
      "componentType": 5125,
      "count": 2190,
      "type": "SCALAR"
    },
    {
      "bufferView": 2,
      "byteOffset": 504384,
      "componentType": 5126,
      "count": 14,
      "max": [
        0.32186776399612427,
        0.6355528831481934,
        -0.3775947690010071
      ],
      "min": [
        -0.3225080966949463,
        0.34106898307800293,
        -0.43959957361221313
      ],
      "type": "VEC3"
    },
    {
      "bufferView": 2,
      "byteOffset": 504552,
      "componentType": 5126,
      "count": 14,
      "max": [
        1.0,
        3.445094490022257e-16,
        1.0
      ],
      "min": [
        -1.0,
        -0.8710862398147583,
        -3.592296877741319e-07
      ],
      "type": "VEC3"
    },
    {
      "bufferView": 1,
      "byteOffset": 185360,
      "componentType": 5126,
      "count": 14,
      "max": [
        1.2556524276733398,
        1.061002254486084
      ],
      "min": [
        0.8342315554618835,
        0.820713996887207
      ],
      "type": "VEC2"
    },
    {
      "bufferView": 0,
      "byteOffset": 339216,
      "componentType": 5125,
      "count": 18,
      "type": "SCALAR"
    },
    {
      "bufferView": 2,
      "byteOffset": 504720,
      "componentType": 5126,
      "count": 1277,
      "max": [
        0.4542526304721832,
        0.6357327699661255,
        -0.21076437830924988
      ],
      "min": [
        -0.45489299297332764,
        0.1787547469139099,
        -0.4238678216934204
      ],
      "type": "VEC3"
    },
    {
      "bufferView": 2,
      "byteOffset": 520044,
      "componentType": 5126,
      "count": 1277,
      "max": [
        1.0,
        0.9979462027549744,
        1.0
      ],
      "min": [
        -1.0,
        -1.0,
        -1.0
      ],
      "type": "VEC3"
    },
    {
      "bufferView": 1,
      "byteOffset": 185472,
      "componentType": 5126,
      "count": 1277,
      "max": [
        0.9904741048812866,
        0.9592568278312683
      ],
      "min": [
        0.007381859235465527,
        0.01758408546447754
      ],
      "type": "VEC2"
    },
    {
      "bufferView": 1,
      "byteOffset": 195688,
      "componentType": 5126,
      "count": 1277,
      "max": [
        1.0,
        1.0
      ],
      "min": [
        0.0,
        0.0
      ],
      "type": "VEC2"
    },
    {
      "bufferView": 0,
      "byteOffset": 339288,
      "componentType": 5125,
      "count": 2901,
      "type": "SCALAR"
    },
    {
      "bufferView": 2,
      "byteOffset": 535368,
      "componentType": 5126,
      "count": 1212,
      "max": [
        0.4682327210903168,
        0.9151246547698975,
        -0.2837585210800171
      ],
      "min": [
        -0.4688730239868164,
        0.323424756526947,
        -0.44342052936553955
      ],
      "type": "VEC3"
    },
    {
      "bufferView": 2,
      "byteOffset": 549912,
      "componentType": 5126,
      "count": 1212,
      "max": [
        1.0,
        1.0,
        1.0
      ],
      "min": [
        -1.0,
        -0.9885914921760559,
        -1.0
      ],
      "type": "VEC3"
    },
    {
      "bufferView": 1,
      "byteOffset": 205904,
      "componentType": 5126,
      "count": 1212,
      "max": [
        0.9806992411613464,
        0.8155162334442139
      ],
      "min": [
        0.051907241344451904,
        0.40733441710472107
      ],
      "type": "VEC2"
    },
    {
      "bufferView": 0,
      "byteOffset": 350892,
      "componentType": 5125,
      "count": 3240,
      "type": "SCALAR"
    }
  ],
  "asset": {
    "extras": {
      "author": "atomle (https://sketchfab.com/atomle)",
      "license": "CC-BY-4.0 (http://creativecommons.org/licenses/by/4.0/)",
      "source": "https://sketchfab.com/3d-models/ipad-7-ec2b3966d0384f87bfdff55799778bf0",
      "title": "Ipad 7"
    },
    "generator": "Sketchfab-12.56.0",
    "version": "2.0"
  },
  "bufferViews": [
    {
      "buffer": 0,
      "byteLength": 363852,
      "name": "floatBufferViews",
      "target": 34963
    },
    {
      "buffer": 0,
      "byteLength": 215600,
      "byteOffset": 363852,
      "byteStride": 8,
      "name": "floatBufferViews",
      "target": 34962
    },
    {
      "buffer": 0,
      "byteLength": 564456,
      "byteOffset": 579452,
      "byteStride": 12,
      "name": "floatBufferViews",
      "target": 34962
    },
    {
      "buffer": 0,
      "byteLength": 175776,
      "byteOffset": 1143908,
      "byteStride": 16,
      "name": "floatBufferViews",
      "target": 34962
    }
  ],
  "buffers": [
    {
      "byteLength": 1319684,
      "uri": "scene.bin"
    }
  ],
  "images": [
    {
      "uri": "textures/isbqkijGoNYDTxF_normal.png"
    },
    {
      "uri": "textures/JQuejxSwmuFbDqi_metallicRoughness.png"
    },
    {
      "uri": "textures/gABZztNTvVoXmXc_baseColor.jpeg"
    },
    {
      "uri": "textures/gABZztNTvVoXmXc_metallicRoughness.png"
    },
    {
      "uri": "textures/gABZztNTvVoXmXc_normal.png"
    },
    {
      "uri": "textures/qPdRArWhuRLRGFi_baseColor.png"
    },
    {
      "uri": "textures/LmzdlAXwDtjIPEa_metallicRoughness.png"
    },
    {
      "uri": "textures/fxxucOdZGHHXkYk_metallicRoughness.png"
    },
    {
      "uri": "textures/xiLgcDwUCBmXkPy_baseColor.png"
    },
    {
      "uri": "textures/vVXWFKSmigZlowN_metallicRoughness.png"
    },
    {
      "uri": "textures/TTqkrhlXHkdrldy_baseColor.jpeg"
    },
    {
      "uri": "textures/eTUqMdUiJziCRoV_emissive.jpeg"
    },
    {
      "uri": "textures/oScFSXJqbuAqAHZ_metallicRoughness.png"
    }
  ],
  "materials": [
    {
      "doubleSided": true,
      "emissiveFactor": [
        0.15,
        0.06375,
        0.0375
      ],
      "name": "isbqkijGoNYDTxF",
      "normalTexture": {
        "index": 0
      },
      "pbrMetallicRoughness": {
        "baseColorFactor": [
          1.0,
          0.566667,
          0.35,
          1.0
        ],
        "roughnessFactor": 0.8
      }
    },
    {
      "doubleSided": true,
      "emissiveFactor": [
        0.2,
        0.2,
        0.2
      ],
      "name": "gOzKWfldoAhClOI",
      "pbrMetallicRoughness": {
        "baseColorFactor": [
          0.5,
          0.5,
          0.5,
          1.0
        ],
        "metallicFactor": 0.2,
        "roughnessFactor": 0.8
      }
    },
    {
      "doubleSided": true,
      "emissiveFactor": [
        0.3,
        0.3,
        0.3
      ],
      "name": "qlZPKxBFgZdoAjL",
      "pbrMetallicRoughness": {
        "metallicFactor": 0.0,
        "roughnessFactor": 0.001
      }
    },
    {
      "doubleSided": true,
      "emissiveFactor": [
        0.2,
        0.2,
        0.2
      ],
      "name": "TMaMJjIPkqFqacG",
      "pbrMetallicRoughness": {
        "baseColorFactor": [
          0.8,
          0.8,
          0.8,
          1.0
        ],
        "metallicFactor": 0.2,
        "roughnessFactor": 0.8
      }
    },
    {
      "doubleSided": true,
      "name": "JQuejxSwmuFbDqi",
      "occlusionTexture": {
        "index": 1
      },
      "pbrMetallicRoughness": {
        "baseColorFactor": [
          0.0,
          0.0,
          0.0,
          1.0
        ],
        "metallicFactor": 0.0,
        "metallicRoughnessTexture": {
          "index": 1
        }
      }
    },
    {
      "doubleSided": true,
      "emissiveFactor": [
        0.05,
        0.0153333,
        0.01
      ],
      "name": "lIbmhnHcRxCyKTH",
      "pbrMetallicRoughness": {
        "baseColorFactor": [
          0.4,
          0.209333,
          0.14,
          1.0
        ],
        "roughnessFactor": 0.01
      }
    },
    {
      "doubleSided": true,
      "name": "gABZztNTvVoXmXc",
      "normalTexture": {
        "index": 4
      },
      "occlusionTexture": {
        "index": 3
      },
      "pbrMetallicRoughness": {
        "baseColorTexture": {
          "index": 2
        },
        "metallicFactor": 0.0,
        "metallicRoughnessTexture": {
          "index": 3
        },
        "roughnessFactor": 0.33
      }
    },
    {
      "alphaMode": "BLEND",
      "doubleSided": true,
      "name": "qPdRArWhuRLRGFi",
      "pbrMetallicRoughness": {
        "baseColorTexture": {
          "index": 5
        },
        "roughnessFactor": 0.7
      }
    },
    {
      "doubleSided": true,
      "name": "LmzdlAXwDtjIPEa",
      "occlusionTexture": {
        "index": 6
      },
      "pbrMetallicRoughness": {
        "metallicFactor": 0.2,
        "metallicRoughnessTexture": {
          "index": 6
        },
        "roughnessFactor": 0.7
      }
    },
    {
      "doubleSided": true,
      "name": "yaLBQePStnlbxkc",
      "occlusionTexture": {
        "index": 6
      },
      "pbrMetallicRoughness": {
        "baseColorFactor": [
          0.55,
          0.55,
          0.55,
          1.0
        ],
        "metallicFactor": 0.2,
        "metallicRoughnessTexture": {
          "index": 6
        },
        "roughnessFactor": 0.7
      }
    },
    {
      "doubleSided": true,
      "emissiveFactor": [
        0.05,
        0.05,
        0.05
      ],
      "name": "fxxucOdZGHHXkYk",
      "occlusionTexture": {
        "index": 7
      },
      "pbrMetallicRoughness": {
        "baseColorFactor": [
          0.748,
          0.748,
          0.748,
          1.0
        ],
        "metallicRoughnessTexture": {
          "index": 7
        },
        "roughnessFactor": 0.3
      }
    },
    {
      "alphaMode": "BLEND",
      "doubleSided": true,
      "name": "xiLgcDwUCBmXkPy",
      "pbrMetallicRoughness": {
        "baseColorTexture": {
          "index": 8
        },
        "roughnessFactor": 0.8
      }
    },
    {
      "alphaMode": "BLEND",
      "doubleSided": true,
      "name": "yOrtZNlfOvvxPSM",
      "pbrMetallicRoughness": {
        "baseColorFactor": [
          0.17,
          0.17,
          0.17,
          0.001
        ],
        "metallicFactor": 0.0,
        "roughnessFactor": 0.33
      }
    },
    {
      "doubleSided": true,
      "name": "vVXWFKSmigZlowN",
      "occlusionTexture": {
        "index": 9
      },
      "pbrMetallicRoughness": {
        "baseColorFactor": [
          0.045,
          0.14625,
          0.45,
          1.0
        ],
        "metallicRoughnessTexture": {
          "index": 9
        },
        "roughnessFactor": 0.01
      }
    },
    {
      "doubleSided": true,
      "name": "TTqkrhlXHkdrldy",
      "pbrMetallicRoughness": {
        "baseColorTexture": {
          "index": 10
        },
        "metallicFactor": 0.522727
      }
    },
    {
      "doubleSided": true,
      "name": "qQZEgslfSFKUScB",
      "occlusionTexture": {
        "index": 1
      },
      "pbrMetallicRoughness": {
        "baseColorFactor": [
          0.0,
          0.0,
          0.0,
          1.0
        ],
        "metallicFactor": 0.2,
        "metallicRoughnessTexture": {
          "index": 1
        },
        "roughnessFactor": 0.001
      }
    },
    {
      "doubleSided": true,
      "emissiveFactor": [
        1.0,
        1.0,
        1.0
      ],
      "emissiveTexture": {
        "index": 11
      },
      "name": "eTUqMdUiJziCRoV",
      "pbrMetallicRoughness": {
        "baseColorFactor": [
          0.0,
          0.0,
          0.0,
          1.0
        ],
        "metallicFactor": 0.2,
        "roughnessFactor": 0.15
      }
    },
    {
      "doubleSided": true,
      "emissiveFactor": [
        0.15,
        0.066,
        0.045
      ],
      "name": "yRJLRfFCjLbxLIu",
      "pbrMetallicRoughness": {
        "baseColorFactor": [
          0.15,
          0.084,
          0.06,
          1.0
        ],
        "roughnessFactor": 0.01
      }
    },
    {
      "doubleSided": true,
      "emissiveFactor": [
        0.1,
        0.054,
        0.04
      ],
      "name": "WiLZDKmGOAGYwwJ",
      "normalTexture": {
        "index": 0
      },
      "pbrMetallicRoughness": {
        "baseColorFactor": [
          0.1,
          0.0666667,
          0.05,
          1.0
        ],
        "roughnessFactor": 0.8
      }
    },
    {
      "doubleSided": true,
      "emissiveFactor": [
        0.15,
        0.06375,
        0.0375
      ],
      "name": "jypBaSgBJwGTeBs",
      "normalTexture": {
        "index": 0
      },
      "pbrMetallicRoughness": {
        "baseColorFactor": [
          0.55,
          0.33,
          0.22,
          1.0
        ],
        "roughnessFactor": 0.75
      }
    },
    {
      "doubleSided": true,
      "name": "oScFSXJqbuAqAHZ",
      "occlusionTexture": {
        "index": 12
      },
      "pbrMetallicRoughness": {
        "baseColorFactor": [
          0.5,
          0.5,
          0.5,
          1.0
        ],
        "metallicRoughnessTexture": {
          "index": 12
        },
        "roughnessFactor": 0.2
      }
    },
    {
      "doubleSided": true,
      "name": "oXLVwLNmHxoKxYU",
      "occlusionTexture": {
        "index": 12
      },
      "pbrMetallicRoughness": {
        "metallicFactor": 0.0,
        "metallicRoughnessTexture": {
          "index": 12
        },
        "roughnessFactor": 0.4
      }
    }
  ],
  "meshes": [
    {
      "name": "WhlxbaYfsXeMUCt",
      "primitives": [
        {
          "attributes": {
            "NORMAL": 1,
            "POSITION": 0,
            "TANGENT": 2,
            "TEXCOORD_0": 3
          },
          "indices": 4,
          "material": 0,
          "mode": 4
        }
      ]
    },
    {
      "name": "aECxmXbZEIzGUHM",
      "primitives": [
        {
          "attributes": {
            "NORMAL": 6,
            "POSITION": 5,
            "TEXCOORD_0": 7
          },
          "indices": 8,
          "material": 1,
          "mode": 4
        }
      ]
    },
    {
      "name": "kyqgosGwBQpScsG",
      "primitives": [
        {
          "attributes": {
            "NORMAL": 10,
            "POSITION": 9,
            "TEXCOORD_0": 11
          },
          "indices": 12,
          "material": 2,
          "mode": 4
        }
      ]
    },
    {
      "name": "mndrlEbtVdHhGMo",
      "primitives": [
        {
          "attributes": {
            "NORMAL": 14,
            "POSITION": 13,
            "TANGENT": 15,
            "TEXCOORD_0": 16
          },
          "indices": 17,
          "material": 0,
          "mode": 4
        }
      ]
    },
    {
      "name": "NgCgolCaNjqjcGZ",
      "primitives": [
        {
          "attributes": {
            "NORMAL": 19,
            "POSITION": 18,
            "TANGENT": 20,
            "TEXCOORD_0": 21,
            "TEXCOORD_1": 22,
            "TEXCOORD_2": 23
          },
          "indices": 24,
          "material": 6,
          "mode": 4
        }
      ]
    },
    {
      "name": "AqQKRyrpQwgBryg",
      "primitives": [
        {
          "attributes": {
            "NORMAL": 26,
            "POSITION": 25,
            "TEXCOORD_0": 27,
            "TEXCOORD_1": 28
          },
          "indices": 29,
          "material": 7,
          "mode": 4
        }
      ]
    },
    {
      "name": "wAhMcFfKTtyzNzi",
      "primitives": [
        {
          "attributes": {
            "NORMAL": 31,
            "POSITION": 30,
            "TEXCOORD_0": 32
          },
          "indices": 33,
          "material": 8,
          "mode": 4
        }
      ]
    },
    {
      "name": "QxDDcFPFhLQFsSG",
      "primitives": [
        {
          "attributes": {
            "NORMAL": 35,
            "POSITION": 34,
            "TEXCOORD_0": 36
          },
          "indices": 37,
          "material": 9,
          "mode": 4
        }
      ]
    },
    {
      "name": "ysTUozDdizWVQXV",
      "primitives": [
        {
          "attributes": {
            "NORMAL": 39,
            "POSITION": 38,
            "TANGENT": 40,
            "TEXCOORD_0": 41
          },
          "indices": 42,
          "material": 0,
          "mode": 4
        }
      ]
    },
    {
      "name": "nwcHCuwxdKpCgWo",
      "primitives": [
        {
          "attributes": {
            "NORMAL": 44,
            "POSITION": 43,
            "TEXCOORD_0": 45
          },
          "indices": 46,
          "material": 3,
          "mode": 4
        }
      ]
    },
    {
      "name": "gdeJKIhJXINgrYh",
      "primitives": [
        {
          "attributes": {
            "NORMAL": 48,
            "POSITION": 47,
            "TEXCOORD_0": 49
          },
          "indices": 50,
          "material": 5,
          "mode": 4
        }
      ]
    },
    {
      "name": "ArWKwJjfhxVbBMW",
      "primitives": [
        {
          "attributes": {
            "NORMAL": 52,
            "POSITION": 51,
            "TEXCOORD_0": 53
          },
          "indices": 54,
          "material": 2,
          "mode": 4
        }
      ]
    },
    {
      "name": "PIzugUUCVUOfcMk",
      "primitives": [
        {
          "attributes": {
            "NORMAL": 56,
            "POSITION": 55,
            "TEXCOORD_0": 57
          },
          "indices": 58,
          "material": 4,
          "mode": 4
        }
      ]
    },
    {
      "name": "LhdDpZTaoXzvEEj",
      "primitives": [
        {
          "attributes": {
            "NORMAL": 60,
            "POSITION": 59,
            "TEXCOORD_0": 61,
            "TEXCOORD_1": 62
          },
          "indices": 63,
          "material": 11,
          "mode": 4
        }
      ]
    },
    {
      "name": "LzcuanfYWpHCipQ",
      "primitives": [
        {
          "attributes": {
            "NORMAL": 65,
            "POSITION": 64,
            "TEXCOORD_0": 66,
            "TEXCOORD_1": 67
          },
          "indices": 68,
          "material": 11,
          "mode": 4
        }
      ]
    },
    {
      "name": "kvzPWODtCYjxUHV",
      "primitives": [
        {
          "attributes": {
            "NORMAL": 70,
            "POSITION": 69,
            "TEXCOORD_0": 71,
            "TEXCOORD_1": 72
          },
          "indices": 73,
          "material": 7,
          "mode": 4
        }
      ]
    },
    {
      "name": "iXEWIfpTRTyEAmy",
      "primitives": [
        {
          "attributes": {
            "NORMAL": 75,
            "POSITION": 74,
            "TEXCOORD_0": 76,
            "TEXCOORD_1": 77
          },
          "indices": 78,
          "material": 11,
          "mode": 4
        }
      ]
    },
    {
      "name": "kCmxqEsUEZeCgVi",
      "primitives": [
        {
          "attributes": {
            "NORMAL": 80,
            "POSITION": 79,
            "TEXCOORD_0": 81,
            "TEXCOORD_1": 82
          },
          "indices": 83,
          "material": 11,
          "mode": 4
        }
      ]
    },
    {
      "name": "nbwVSADQhYNDTpG",
      "primitives": [
        {
          "attributes": {
            "NORMAL": 85,
            "POSITION": 84,
            "TEXCOORD_0": 86,
            "TEXCOORD_1": 87
          },
          "indices": 88,
          "material": 7,
          "mode": 4
        }
      ]
    },
    {
      "name": "pEEytdBMnHnGyHf",
      "primitives": [
        {
          "attributes": {
            "NORMAL": 90,
            "POSITION": 89,
            "TEXCOORD_0": 91
          },
          "indices": 92,
          "material": 10,
          "mode": 4
        }
      ]
    },
    {
      "name": "WjRjdgofilNQBSw",
      "primitives": [
        {
          "attributes": {
            "NORMAL": 94,
            "POSITION": 93,
            "TEXCOORD_0": 95
          },
          "indices": 96,
          "material": 12,
          "mode": 4
        }
      ]
    },
    {
      "name": "PAAoyRECyjFHYme",
      "primitives": [
        {
          "attributes": {
            "NORMAL": 98,
            "POSITION": 97,
            "TEXCOORD_0": 99
          },
          "indices": 100,
          "material": 13,
          "mode": 4
        }
      ]
    },
    {
      "name": "KrwCNcMwboPgCok",
      "primitives": [
        {
          "attributes": {
            "NORMAL": 102,
            "POSITION": 101,
            "TEXCOORD_0": 103
          },
          "indices": 104,
          "material": 14,
          "mode": 4
        }
      ]
    },
    {
      "name": "azGKOzbkDXvKAGK",
      "primitives": [
        {
          "attributes": {
            "NORMAL": 106,
            "POSITION": 105,
            "TEXCOORD_0": 107
          },
          "indices": 108,
          "material": 4,
          "mode": 4
        }
      ]
    },
    {
      "name": "WYHnWFgKtNXpiYQ",
      "primitives": [
        {
          "attributes": {
            "NORMAL": 110,
            "POSITION": 109,
            "TEXCOORD_0": 111
          },
          "indices": 112,
          "material": 15,
          "mode": 4
        }
      ]
    },
    {
      "name": "tWPGnTQcSWOELFw",
      "primitives": [
        {
          "attributes": {
            "NORMAL": 114,
            "POSITION": 113,
            "TEXCOORD_0": 115
          },
          "indices": 116,
          "material": 16,
          "mode": 4
        }
      ]
    },
    {
      "name": "mTkNfzhZGYVeHtw",
      "primitives": [
        {
          "attributes": {
            "NORMAL": 118,
            "POSITION": 117,
            "TEXCOORD_0": 119
          },
          "indices": 120,
          "material": 12,
          "mode": 4
        }
      ]
    },
    {
      "name": "fHauwxoIEFKtvOx",
      "primitives": [
        {
          "attributes": {
            "NORMAL": 122,
            "POSITION": 121,
            "TEXCOORD_0": 123
          },
          "indices": 124,
          "material": 13,
          "mode": 4
        }
      ]
    },
    {
      "name": "gHBUFtXsGrwMOmY",
      "primitives": [
        {
          "attributes": {
            "NORMAL": 126,
            "POSITION": 125,
            "TEXCOORD_0": 127
          },
          "indices": 128,
          "material": 14,
          "mode": 4
        }
      ]
    },
    {
      "name": "ajubXvpUTWnWmDu_0",
      "primitives": [
        {
          "attributes": {
            "NORMAL": 130,
            "POSITION": 129,
            "TEXCOORD_0": 131
          },
          "indices": 132,
          "material": 4,
          "mode": 4
        }
      ]
    },
    {
      "name": "OUJxSIJrLYNmldQ",
      "primitives": [
        {
          "attributes": {
            "NORMAL": 134,
            "POSITION": 133,
            "TEXCOORD_0": 135
          },
          "indices": 136,
          "material": 17,
          "mode": 4
        }
      ]
    },
    {
      "name": "uEpLYkIjrrbqcef",
      "primitives": [
        {
          "attributes": {
            "NORMAL": 138,
            "POSITION": 137,
            "TANGENT": 139,
            "TEXCOORD_0": 140
          },
          "indices": 141,
          "material": 18,
          "mode": 4
        }
      ]
    },
    {
      "name": "pZOyelrgjGrmZfx",
      "primitives": [
        {
          "attributes": {
            "NORMAL": 143,
            "POSITION": 142,
            "TANGENT": 144,
            "TEXCOORD_0": 145
          },
          "indices": 146,
          "material": 19,
          "mode": 4
        }
      ]
    },
    {
      "name": "arETawMxPjZCMEa",
      "primitives": [
        {
          "attributes": {
            "NORMAL": 148,
            "POSITION": 147,
            "TEXCOORD_0": 149
          },
          "indices": 150,
          "material": 4,
          "mode": 4
        }
      ]
    },
    {
      "name": "MdhDahfMTHTMOnv",
      "primitives": [
        {
          "attributes": {
            "NORMAL": 152,
            "POSITION": 151,
            "TEXCOORD_0": 153,
            "TEXCOORD_1": 154
          },
          "indices": 155,
          "material": 21,
          "mode": 4
        }
      ]
    },
    {
      "name": "CIKmzlWHngmAoKr",
      "primitives": [
        {
          "attributes": {
            "NORMAL": 157,
            "POSITION": 156,
            "TEXCOORD_0": 158
          },
          "indices": 159,
          "material": 20,
          "mode": 4
        }
      ]
    }
  ],
  "nodes": [
    {
      "children": [
        1
      ],
      "matrix": [
        1.4874335527420044,
        0.0,
        0.0,
        0.0,
        0.0,
        3.302765955708341e-16,
        -1.4874335527420044,
        0.0,
        0.0,
        1.4874335527420044,
        3.302765955708341e-16,
        0.0,
        0.0,
        0.0,
        0.0,
        1.0
      ],
      "name": "Sketchfab_model"
    },
    {
      "children": [
        2
      ],
      "matrix": [
        0.009999999776482582,
        0.0,
        0.0,
        0.0,
        0.0,
        2.2204459996194763e-18,
        0.009999999776482582,
        0.0,
        0.0,
        -0.009999999776482582,
        2.2204459996194763e-18,
        0.0,
        0.0,
        0.0,
        0.0,
        1.0
      ],
      "name": "USDRoot"
    },
    {
      "children": [
        3,
        6,
        9,
        19,
        27,
        32,
        40,
        42,
        44
      ],
      "name": "tracking_node_placeholder"
    },
    {
      "children": [
        4,
        5
      ],
      "name": "doVoDLuoyhaXNnI"
    },
    {
      "mesh": 0,
      "name": "WhlxbaYfsXeMUCt"
    },
    {
      "mesh": 1,
      "name": "aECxmXbZEIzGUHM"
    },
    {
      "children": [
        7,
        8
      ],
      "name": "ufpyGRGLyPaosVr"
    },
    {
      "mesh": 2,
      "name": "kyqgosGwBQpScsG"
    },
    {
      "mesh": 3,
      "name": "mndrlEbtVdHhGMo"
    },
    {
      "children": [
        10,
        11,
        12,
        13,
        14,
        15,
        16,
        17,
        18
      ],
      "name": "fwTfuIWTOSEePMG"
    },
    {
      "mesh": 4,
      "name": "NgCgolCaNjqjcGZ"
    },
    {
      "mesh": 5,
      "name": "AqQKRyrpQwgBryg"
    },
    {
      "mesh": 6,
      "name": "wAhMcFfKTtyzNzi"
    },
    {
      "mesh": 7,
      "name": "QxDDcFPFhLQFsSG"
    },
    {
      "mesh": 8,
      "name": "ysTUozDdizWVQXV"
    },
    {
      "mesh": 9,
      "name": "nwcHCuwxdKpCgWo"
    },
    {
      "mesh": 10,
      "name": "gdeJKIhJXINgrYh"
    },
    {
      "mesh": 11,
      "name": "ArWKwJjfhxVbBMW"
    },
    {
      "mesh": 12,
      "name": "PIzugUUCVUOfcMk"
    },
    {
      "children": [
        20,
        21,
        22,
        23,
        24,
        25,
        26
      ],
      "name": "HBKHQbpxWntosjQ"
    },
    {
      "mesh": 13,
      "name": "LhdDpZTaoXzvEEj"
    },
    {
      "mesh": 14,
      "name": "LzcuanfYWpHCipQ"
    },
    {
      "mesh": 15,
      "name": "kvzPWODtCYjxUHV"
    },
    {
      "mesh": 16,
      "name": "iXEWIfpTRTyEAmy"
    },
    {
      "mesh": 17,
      "name": "kCmxqEsUEZeCgVi"
    },
    {
      "mesh": 18,
      "name": "nbwVSADQhYNDTpG"
    },
    {
      "mesh": 19,
      "name": "pEEytdBMnHnGyHf"
    },
    {
      "children": [
        28,
        29,
        30,
        31
      ],
      "name": "FFDNUnPHBkjpNIn"
    },
    {
      "mesh": 20,
      "name": "WjRjdgofilNQBSw"
    },
    {
      "mesh": 21,
      "name": "PAAoyRECyjFHYme"
    },
    {
      "mesh": 22,
      "name": "KrwCNcMwboPgCok"
    },
    {
      "mesh": 23,
      "name": "azGKOzbkDXvKAGK"
    },
    {
      "children": [
        33,
        34,
        35,
        36
      ],
      "name": "uTHZoUfwpvnJcCK"
    },
    {
      "mesh": 24,
      "name": "WYHnWFgKtNXpiYQ"
    },
    {
      "mesh": 25,
      "name": "tWPGnTQcSWOELFw"
    },
    {
      "mesh": 26,
      "name": "mTkNfzhZGYVeHtw"
    },
    {
      "children": [
        37,
        38,
        39
      ],
      "name": "llFnANLkdnLULZL"
    },
    {
      "mesh": 27,
      "name": "fHauwxoIEFKtvOx"
    },
    {
      "mesh": 28,
      "name": "gHBUFtXsGrwMOmY"
    },
    {
      "mesh": 29,
      "name": "ajubXvpUTWnWmDu_0"
    },
    {
      "children": [
        41
      ],
      "name": "WiSIHEZJNAVDZWR"
    },
    {
      "mesh": 30,
      "name": "OUJxSIJrLYNmldQ"
    },
    {
      "children": [
        43
      ],
      "name": "TQXPplKFNKbIeJi"
    },
    {
      "mesh": 31,
      "name": "uEpLYkIjrrbqcef"
    },
    {
      "children": [
        45,
        46,
        47,
        48
      ],
      "name": "pTOnFMiaPKRjzIN"
    },
    {
      "mesh": 32,
      "name": "pZOyelrgjGrmZfx"
    },
    {
      "mesh": 33,
      "name": "arETawMxPjZCMEa"
    },
    {
      "mesh": 34,
      "name": "MdhDahfMTHTMOnv"
    },
    {
      "mesh": 35,
      "name": "CIKmzlWHngmAoKr"
    }
  ],
  "samplers": [
    {
      "magFilter": 9729,
      "minFilter": 9987,
      "wrapS": 10497,
      "wrapT": 10497
    }
  ],
  "scene": 0,
  "scenes": [
    {
      "name": "Sketchfab_Scene",
      "nodes": [
        0
      ]
    }
  ],
  "textures": [
    {
      "sampler": 0,
      "source": 0
    },
    {
      "sampler": 0,
      "source": 1
    },
    {
      "sampler": 0,
      "source": 2
    },
    {
      "sampler": 0,
      "source": 3
    },
    {
      "sampler": 0,
      "source": 4
    },
    {
      "sampler": 0,
      "source": 5
    },
    {
      "sampler": 0,
      "source": 6
    },
    {
      "sampler": 0,
      "source": 7
    },
    {
      "sampler": 0,
      "source": 8
    },
    {
      "sampler": 0,
      "source": 9
    },
    {
      "sampler": 0,
      "source": 10
    },
    {
      "sampler": 0,
      "source": 11
    },
    {
      "sampler": 0,
      "source": 12
    }
  ]
}
