{
  "accessors": [
    {
      "bufferView": 2,
      "componentType": 5126,
      "count": 803,
      "max": [
        1.0,
        1.0,
        0.3476299047470093
      ],
      "min": [
        -1.0,
        -1.4044651985168457,
        -0.30888795852661133
      ],
      "type": "VEC3"
    },
    {
      "bufferView": 2,
      "byteOffset": 9636,
      "componentType": 5126,
      "count": 803,
      "max": [
        1.0,
        1.0,
        1.0
      ],
      "min": [
        -1.0,
        -1.0,
        -1.0
      ],
      "type": "VEC3"
    },
    {
      "bufferView": 1,
      "componentType": 5126,
      "count": 803,
      "max": [
        0.7419940233230591,
        0.9444753527641296
      ],
      "min": [
        0.1633370816707611,
        0.07448993623256683
      ],
      "type": "VEC2"
    },
    {
      "bufferView": 0,
      "componentType": 5125,
      "count": 1677,
      "type": "SCALAR"
    }
  ],
  "asset": {
    "extras": {
      "author": "trashbinkr (https://sketchfab.com/ChristopherKR)",
      "license": "SKETCHFAB Standard (https://sketchfab.com/licenses)",
      "source": "https://sketchfab.com/3d-models/simple-virus-usb-flash-fcbe5f15b47446de92e9f7053818cae5",
      "title": "Simple Virus USB Flash"
    },
    "generator": "Sketchfab-17.15.0",
    "version": "2.0"
  },
  "bufferViews": [
    {
      "buffer": 0,
      "byteLength": 6708,
      "name": "floatBufferViews",
      "target": 34963
    },
    {
      "buffer": 0,
      "byteLength": 6424,
      "byteOffset": 6708,
      "byteStride": 8,
      "name": "floatBufferViews",
      "target": 34962
    },
    {
      "buffer": 0,
      "byteLength": 19272,
      "byteOffset": 13132,
      "byteStride": 12,
      "name": "floatBufferViews",
      "target": 34962
    }
  ],
  "buffers": [
    {
      "byteLength": 32404,
      "uri": "scene.bin"
    }
  ],
  "images": [
    {
      "uri": "textures/Material.001_baseColor.png"
    }
  ],
  "materials": [
    {
      "doubleSided": true,
      "name": "Material.001",
      "pbrMetallicRoughness": {
        "baseColorTexture": {
          "index": 0
        },
        "metallicFactor": 0.0,
        "roughnessFactor": 0.7897188439415027
      }
    }
  ],
  "meshes": [
    {
      "name": "USBFlash_Material.001_0",
      "primitives": [
        {
          "attributes": {
            "NORMAL": 1,
            "POSITION": 0,
            "TEXCOORD_0": 2
          },
          "indices": 3,
          "material": 0,
          "mode": 4
        }
      ]
    }
  ],
  "nodes": [
    {
      "children": [
        1
      ],
      "matrix": [
        1.0,
        0.0,
        0.0,
        0.0,
        0.0,
        2.220446049250313e-16,
        -1.0,
        0.0,
        0.0,
        1.0,
        2.220446049250313e-16,
        0.0,
        0.0,
        0.0,
        0.0,
        1.0
      ],
      "name": "Sketchfab_model"
    },
    {
      "children": [
        2
      ],
      "matrix": [
        0.009999999776482582,
        0.0,
        0.0,
        0.0,
        0.0,
        0.0,
        0.009999999776482582,
        0.0,
        0.0,
        -0.009999999776482582,
        0.0,
        0.0,
        0.0,
        0.0,
        0.0,
        1.0
      ],
      "name": "USBFlash.fbx"
    },
    {
      "children": [
        3
      ],
      "name": "RootNode"
    },
    {
      "children": [
        4
      ],
      "matrix": [
        -4.125434518787764e-06,
        -94.37893676757804,
        -1.0478166863900698e-14,
        0.0,
        -8.01153291277202e-06,
        3.6627201515900334e-13,
        -183.28250122070295,
        0.0,
        99.99999999999982,
        -4.371139011860592e-06,
        -4.371139006309477e-06,
        0.0,
        0.0,
        357.67926025390625,
        -1.4659076929092407,
        1.0
      ],
      "name": "USBFlash"
    },
    {
      "mesh": 0,
      "name": "USBFlash_Material.001_0"
    }
  ],
  "samplers": [
    {
      "magFilter": 9729,
      "minFilter": 9987,
      "wrapS": 10497,
      "wrapT": 10497
    }
  ],
  "scene": 0,
  "scenes": [
    {
      "name": "Sketchfab_Scene",
      "nodes": [
        0
      ]
    }
  ],
  "textures": [
    {
      "sampler": 0,
      "source": 0
    }
  ]
}
